<?xml version="1.0" encoding="UTF-8" standalone="no"?>
<!DOCTYPE svg PUBLIC "-//W3C//DTD SVG 1.1//EN"
 "http://www.w3.org/Graphics/SVG/1.1/DTD/svg11.dtd">
<!-- Generated by graphviz version 2.26.3 (20100126.1600)
 -->
<!-- Title: FST Pages: 1 -->
<svg width="335pt" height="612pt"
 viewBox="0.00 0.00 612.00 335.37" xmlns="http://www.w3.org/2000/svg" xmlns:xlink="http://www.w3.org/1999/xlink">
<g id="graph1" class="graph" transform="scale(0.179157 0.179157) rotate(-90) translate(-3413 1867.93)">
<title>FST</title>
<polygon fill="white" stroke="white" points="-4,5 -4,-1867.93 3413,-1867.93 3413,5 -4,5"/>
<!-- 0 -->
<g id="node1" class="node"><title>0</title>
<ellipse fill="none" stroke="black" stroke-width="2" cx="19" cy="-609.927" rx="17.8879" ry="18.3848"/>
<text text-anchor="middle" x="19" y="-606.327" font-family="Times Roman,serif" font-size="14.00">0</text>
</g>
<!-- 1 -->
<g id="node3" class="node"><title>1</title>
<ellipse fill="none" stroke="black" cx="237" cy="-1344.93" rx="17.8879" ry="18.3848"/>
<text text-anchor="middle" x="237" y="-1341.33" font-family="Times Roman,serif" font-size="14.00">1</text>
</g>
<!-- 0&#45;&gt;1 -->
<g id="edge2" class="edge"><title>0&#45;&gt;1</title>
<path fill="none" stroke="black" d="M20.2867,-627.984C24.4793,-685.269 38.3247,-862.405 53,-917.927 95.282,-1077.89 187.818,-1255.45 223.025,-1319.87"/>
<polygon fill="black" stroke="black" points="220.094,-1321.8 227.979,-1328.87 226.227,-1318.43 220.094,-1321.8"/>
<text text-anchor="middle" x="128" y="-1281.33" font-family="Times Roman,serif" font-size="14.00">&lt;epsilon&gt;:&lt;epsilon&gt;</text>
</g>
<!-- 2 -->
<g id="node5" class="node"><title>2</title>
<ellipse fill="none" stroke="black" cx="827" cy="-1467.93" rx="17.8879" ry="18.3848"/>
<text text-anchor="middle" x="827" y="-1464.33" font-family="Times Roman,serif" font-size="14.00">2</text>
</g>
<!-- 0&#45;&gt;2 -->
<g id="edge4" class="edge"><title>0&#45;&gt;2</title>
<path fill="none" stroke="black" d="M20.3896,-627.924C23.1349,-654.686 31.0373,-705.799 53,-742.927 106.725,-833.748 684.915,-1343.3 805.17,-1448.81"/>
<polygon fill="black" stroke="black" points="803.197,-1451.73 813.023,-1455.69 807.812,-1446.47 803.197,-1451.73"/>
<text text-anchor="middle" x="346" y="-1109.33" font-family="Times Roman,serif" font-size="14.00">&lt;epsilon&gt;:&lt;epsilon&gt;</text>
</g>
<!-- 3 -->
<g id="node7" class="node"><title>3</title>
<ellipse fill="none" stroke="black" cx="1093" cy="-831.927" rx="17.8879" ry="18.3848"/>
<text text-anchor="middle" x="1093" y="-828.327" font-family="Times Roman,serif" font-size="14.00">3</text>
</g>
<!-- 0&#45;&gt;3 -->
<g id="edge6" class="edge"><title>0&#45;&gt;3</title>
<path fill="none" stroke="black" d="M24.8163,-627.257C30.1615,-640.687 39.3453,-658.822 53,-669.927 119.627,-724.112 151.121,-728.927 237,-728.927 237,-728.927 237,-728.927 827,-728.927 922.208,-728.927 1024.44,-787.018 1069.44,-815.948"/>
<polygon fill="black" stroke="black" points="1067.63,-818.941 1077.91,-821.484 1071.46,-813.082 1067.63,-818.941"/>
<text text-anchor="middle" x="511" y="-734.327" font-family="Times Roman,serif" font-size="14.00">&lt;epsilon&gt;:&lt;epsilon&gt;</text>
</g>
<!-- 4 -->
<g id="node9" class="node"><title>4</title>
<ellipse fill="none" stroke="black" cx="1597" cy="-1207.93" rx="17.8879" ry="18.3848"/>
<text text-anchor="middle" x="1597" y="-1204.33" font-family="Times Roman,serif" font-size="14.00">4</text>
</g>
<!-- 0&#45;&gt;4 -->
<g id="edge8" class="edge"><title>0&#45;&gt;4</title>
<path fill="none" stroke="black" d="M36.0364,-617.794C41.3802,-620.029 47.3581,-622.296 53,-623.927 132.741,-646.977 153.995,-655.927 237,-655.927 237,-655.927 237,-655.927 1373,-655.927 1487.34,-655.927 1571.28,-1067.74 1592.03,-1179.97"/>
<polygon fill="black" stroke="black" points="1588.59,-1180.67 1593.84,-1189.87 1595.48,-1179.41 1588.59,-1180.67"/>
<text text-anchor="middle" x="827" y="-661.327" font-family="Times Roman,serif" font-size="14.00">&lt;epsilon&gt;:&lt;epsilon&gt;</text>
</g>
<!-- 5 -->
<g id="node11" class="node"><title>5</title>
<ellipse fill="none" stroke="black" cx="2131" cy="-1382.93" rx="17.8879" ry="18.3848"/>
<text text-anchor="middle" x="2131" y="-1379.33" font-family="Times Roman,serif" font-size="14.00">5</text>
</g>
<!-- 0&#45;&gt;5 -->
<g id="edge10" class="edge"><title>0&#45;&gt;5</title>
<path fill="none" stroke="black" d="M37.6631,-609.927C75.3417,-609.927 163.198,-609.927 237,-609.927 237,-609.927 237,-609.927 1871,-609.927 2031.43,-609.927 2111.57,-1215.64 2127.85,-1354.71"/>
<polygon fill="black" stroke="black" points="2124.41,-1355.42 2129.03,-1364.96 2131.36,-1354.62 2124.41,-1355.42"/>
<text text-anchor="middle" x="1093" y="-615.327" font-family="Times Roman,serif" font-size="14.00">&lt;epsilon&gt;:&lt;epsilon&gt;</text>
</g>
<!-- 6 -->
<g id="node13" class="node"><title>6</title>
<ellipse fill="none" stroke="black" cx="2291" cy="-701.927" rx="17.8879" ry="18.3848"/>
<text text-anchor="middle" x="2291" y="-698.327" font-family="Times Roman,serif" font-size="14.00">6</text>
</g>
<!-- 0&#45;&gt;6 -->
<g id="edge12" class="edge"><title>0&#45;&gt;6</title>
<path fill="none" stroke="black" d="M36.5371,-603.627C73.228,-591.029 160.993,-563.927 237,-563.927 237,-563.927 237,-563.927 2131,-563.927 2199.43,-563.927 2253.09,-637.204 2277.17,-676.965"/>
<polygon fill="black" stroke="black" points="2274.3,-678.982 2282.38,-685.826 2280.33,-675.433 2274.3,-678.982"/>
<text text-anchor="middle" x="1258" y="-569.327" font-family="Times Roman,serif" font-size="14.00">&lt;epsilon&gt;:&lt;epsilon&gt;</text>
</g>
<!-- 7 -->
<g id="node15" class="node"><title>7</title>
<ellipse fill="none" stroke="black" cx="2673" cy="-766.927" rx="17.8879" ry="18.3848"/>
<text text-anchor="middle" x="2673" y="-763.327" font-family="Times Roman,serif" font-size="14.00">7</text>
</g>
<!-- 0&#45;&gt;7 -->
<g id="edge14" class="edge"><title>0&#45;&gt;7</title>
<path fill="none" stroke="black" d="M26.7198,-593.144C32.4695,-582.542 41.3363,-569.467 53,-561.927 122.98,-516.69 153.672,-525.927 237,-525.927 237,-525.927 237,-525.927 2457,-525.927 2570.9,-525.927 2639.85,-677.042 2663.63,-739.95"/>
<polygon fill="black" stroke="black" points="2660.44,-741.419 2667.17,-749.595 2667.01,-739.001 2660.44,-741.419"/>
<text text-anchor="middle" x="1488" y="-531.327" font-family="Times Roman,serif" font-size="14.00">&lt;epsilon&gt;:&lt;epsilon&gt;</text>
</g>
<!-- 8 -->
<g id="node17" class="node"><title>8</title>
<ellipse fill="none" stroke="black" cx="3049" cy="-890.927" rx="17.8879" ry="18.3848"/>
<text text-anchor="middle" x="3049" y="-887.327" font-family="Times Roman,serif" font-size="14.00">8</text>
</g>
<!-- 0&#45;&gt;8 -->
<g id="edge16" class="edge"><title>0&#45;&gt;8</title>
<path fill="none" stroke="black" d="M20.8372,-591.745C23.8928,-571.517 31.9469,-539.388 53,-521.927 117.011,-468.837 153.838,-487.927 237,-487.927 237,-487.927 237,-487.927 2821,-487.927 2993.45,-487.927 3036.99,-770.935 3046.57,-862.626"/>
<polygon fill="black" stroke="black" points="3043.11,-863.22 3047.57,-872.828 3050.07,-862.533 3043.11,-863.22"/>
<text text-anchor="middle" x="1706" y="-493.327" font-family="Times Roman,serif" font-size="14.00">&lt;epsilon&gt;:&lt;epsilon&gt;</text>
</g>
<!-- 9 -->
<g id="node19" class="node"><title>9</title>
<ellipse fill="none" stroke="black" cx="3209" cy="-214.927" rx="17.8879" ry="18.3848"/>
<text text-anchor="middle" x="3209" y="-211.327" font-family="Times Roman,serif" font-size="14.00">9</text>
</g>
<!-- 0&#45;&gt;9 -->
<g id="edge18" class="edge"><title>0&#45;&gt;9</title>
<path fill="none" stroke="black" d="M20.4324,-591.956C23.2154,-565.782 31.1466,-516.429 53,-480.927 110.269,-387.889 127.749,-317.927 237,-317.927 237,-317.927 237,-317.927 3049,-317.927 3108.44,-317.927 3163.36,-267.049 3190.76,-236.81"/>
<polygon fill="black" stroke="black" points="3193.43,-239.064 3197.42,-229.249 3188.18,-234.434 3193.43,-239.064"/>
<text text-anchor="middle" x="1871" y="-323.327" font-family="Times Roman,serif" font-size="14.00">&lt;epsilon&gt;:&lt;epsilon&gt;</text>
</g>
<!-- 21 -->
<g id="node21" class="node"><title>21</title>
<ellipse fill="none" stroke="black" cx="511" cy="-1385.93" rx="24.2437" ry="24.7487"/>
<text text-anchor="middle" x="511" y="-1382.33" font-family="Times Roman,serif" font-size="14.00">21</text>
</g>
<!-- 1&#45;&gt;21 -->
<g id="edge22" class="edge"><title>1&#45;&gt;21</title>
<path fill="none" stroke="black" d="M238.006,-1363.16C240.557,-1401.8 248.737,-1489.83 271,-1507.93 322.73,-1549.98 361.49,-1537.98 421,-1507.93 458.046,-1489.22 483.599,-1447.28 497.763,-1417.81"/>
<polygon fill="black" stroke="black" points="501.117,-1418.9 502.131,-1408.35 494.762,-1415.97 501.117,-1418.9"/>
<text text-anchor="middle" x="346" y="-1540.33" font-family="Times Roman,serif" font-size="14.00">2:two</text>
</g>
<!-- 1&#45;&gt;21 -->
<g id="edge24" class="edge"><title>1&#45;&gt;21</title>
<path fill="none" stroke="black" d="M239.367,-1363.04C243.806,-1393.85 254.452,-1454.36 271,-1466.93 297.546,-1487.09 389.879,-1478.87 421,-1466.93 448.82,-1456.25 473.425,-1432.56 489.846,-1413.55"/>
<polygon fill="black" stroke="black" points="492.646,-1415.65 496.368,-1405.73 487.273,-1411.17 492.646,-1415.65"/>
<text text-anchor="middle" x="346" y="-1484.33" font-family="Times Roman,serif" font-size="14.00">3:three</text>
</g>
<!-- 1&#45;&gt;21 -->
<g id="edge26" class="edge"><title>1&#45;&gt;21</title>
<path fill="none" stroke="black" d="M238.89,-1363.07C241.977,-1382.37 250.044,-1412 271,-1425.93 298.759,-1444.38 388.393,-1432.85 421,-1425.93 441.887,-1421.49 463.812,-1411.87 480.792,-1403.17"/>
<polygon fill="black" stroke="black" points="482.474,-1406.24 489.679,-1398.47 479.202,-1400.05 482.474,-1406.24"/>
<text text-anchor="middle" x="346" y="-1440.33" font-family="Times Roman,serif" font-size="14.00">4:four</text>
</g>
<!-- 1&#45;&gt;21 -->
<g id="edge28" class="edge"><title>1&#45;&gt;21</title>
<path fill="none" stroke="black" d="M245.794,-1360.83C251.656,-1369.69 260.256,-1379.93 271,-1384.93 306.48,-1401.42 419.074,-1394.25 476.539,-1389.26"/>
<polygon fill="black" stroke="black" points="476.948,-1392.74 486.596,-1388.36 476.324,-1385.77 476.948,-1392.74"/>
<text text-anchor="middle" x="346" y="-1400.33" font-family="Times Roman,serif" font-size="14.00">5:five</text>
</g>
<!-- 1&#45;&gt;21 -->
<g id="edge30" class="edge"><title>1&#45;&gt;21</title>
<path fill="none" stroke="black" d="M255.67,-1345.81C289.054,-1347.6 361.093,-1352.41 421,-1362.93 439.942,-1366.25 460.766,-1371.47 477.608,-1376.1"/>
<polygon fill="black" stroke="black" points="476.954,-1379.55 487.528,-1378.88 478.844,-1372.81 476.954,-1379.55"/>
<text text-anchor="middle" x="346" y="-1368.33" font-family="Times Roman,serif" font-size="14.00">6:six</text>
</g>
<!-- 1&#45;&gt;21 -->
<g id="edge32" class="edge"><title>1&#45;&gt;21</title>
<path fill="none" stroke="black" d="M251.384,-1333.59C257.146,-1329.73 264.059,-1325.9 271,-1323.93 335.132,-1305.72 357.343,-1304.12 421,-1323.93 445.288,-1331.48 468.82,-1348.13 485.726,-1362.27"/>
<polygon fill="black" stroke="black" points="483.613,-1365.07 493.468,-1368.96 488.191,-1359.77 483.613,-1365.07"/>
<text text-anchor="middle" x="346" y="-1329.33" font-family="Times Roman,serif" font-size="14.00">7:seven</text>
</g>
<!-- 1&#45;&gt;21 -->
<g id="edge34" class="edge"><title>1&#45;&gt;21</title>
<path fill="none" stroke="black" d="M241.945,-1327.53C246.868,-1313.8 255.91,-1295.57 271,-1286.93 328.845,-1253.78 360.032,-1259.96 421,-1286.93 452.645,-1300.93 477.936,-1332.16 493.553,-1355.82"/>
<polygon fill="black" stroke="black" points="490.736,-1357.91 499.058,-1364.47 496.641,-1354.16 490.736,-1357.91"/>
<text text-anchor="middle" x="346" y="-1292.33" font-family="Times Roman,serif" font-size="14.00">8:eight</text>
</g>
<!-- 1&#45;&gt;21 -->
<g id="edge36" class="edge"><title>1&#45;&gt;21</title>
<path fill="none" stroke="black" d="M240.311,-1327.04C245.663,-1300.32 257.037,-1252.02 271,-1241.93 298.013,-1222.4 391.845,-1225.77 421,-1241.93 463.479,-1265.47 488.556,-1318.34 501.037,-1353.05"/>
<polygon fill="black" stroke="black" points="497.81,-1354.43 504.37,-1362.75 504.431,-1352.16 497.81,-1354.43"/>
<text text-anchor="middle" x="346" y="-1247.33" font-family="Times Roman,serif" font-size="14.00">9:nine</text>
</g>
<!-- 1&#45;&gt;21 -->
<g id="edge20" class="edge"><title>1&#45;&gt;21</title>
<path fill="none" stroke="black" d="M238.593,-1326.92C242.074,-1292.23 251.645,-1218.19 271,-1202.93 323.342,-1161.64 364.406,-1167.69 421,-1202.93 473.479,-1235.6 496.239,-1308.83 505.406,-1352.1"/>
<polygon fill="black" stroke="black" points="502.022,-1353.03 507.406,-1362.15 508.887,-1351.66 502.022,-1353.03"/>
<text text-anchor="middle" x="346" y="-1208.33" font-family="Times Roman,serif" font-size="14.00">1:one</text>
</g>
<!-- 19 -->
<g id="node31" class="node"><title>19</title>
<ellipse fill="none" stroke="black" cx="1093" cy="-1590.93" rx="24.2437" ry="24.7487"/>
<text text-anchor="middle" x="1093" y="-1587.33" font-family="Times Roman,serif" font-size="14.00">19</text>
</g>
<!-- 2&#45;&gt;19 -->
<g id="edge38" class="edge"><title>2&#45;&gt;19</title>
<path fill="none" stroke="black" d="M828.615,-1485.94C833.419,-1527.41 851.655,-1629.33 917,-1671.93 949.021,-1692.8 967.315,-1685.62 1003,-1671.93 1030.82,-1661.25 1055.42,-1637.56 1071.85,-1618.55"/>
<polygon fill="black" stroke="black" points="1074.65,-1620.65 1078.37,-1610.73 1069.27,-1616.17 1074.65,-1620.65"/>
<text text-anchor="middle" x="960" y="-1690.33" font-family="Times Roman,serif" font-size="14.00">0:&lt;epsilon&gt;</text>
</g>
<!-- 2&#45;&gt;19 -->
<g id="edge40" class="edge"><title>2&#45;&gt;19</title>
<path fill="none" stroke="black" d="M830.648,-1485.82C838.91,-1521.08 862.714,-1598.89 917,-1630.93 963.521,-1658.38 1027.2,-1630.72 1063.83,-1609.73"/>
<polygon fill="black" stroke="black" points="1065.71,-1612.68 1072.53,-1604.57 1062.15,-1606.66 1065.71,-1612.68"/>
<text text-anchor="middle" x="960" y="-1647.33" font-family="Times Roman,serif" font-size="14.00">2:twenty</text>
</g>
<!-- 2&#45;&gt;19 -->
<g id="edge42" class="edge"><title>2&#45;&gt;19</title>
<path fill="none" stroke="black" d="M836.275,-1483.89C854.292,-1514.26 894.243,-1578.35 917,-1589.93 962.062,-1612.84 1022.39,-1606.56 1059.43,-1599.24"/>
<polygon fill="black" stroke="black" points="1060.16,-1602.66 1069.23,-1597.17 1058.72,-1595.81 1060.16,-1602.66"/>
<text text-anchor="middle" x="960" y="-1611.33" font-family="Times Roman,serif" font-size="14.00">3:thirty</text>
</g>
<!-- 2&#45;&gt;19 -->
<g id="edge44" class="edge"><title>2&#45;&gt;19</title>
<path fill="none" stroke="black" d="M838.504,-1482.07C854.242,-1500.43 884.287,-1532.1 917,-1548.93 951.808,-1566.83 964.921,-1558.86 1003,-1567.93 1021.58,-1572.35 1042.23,-1577.6 1059.06,-1581.97"/>
<polygon fill="black" stroke="black" points="1058.43,-1585.43 1068.99,-1584.56 1060.19,-1578.65 1058.43,-1585.43"/>
<text text-anchor="middle" x="960" y="-1573.33" font-family="Times Roman,serif" font-size="14.00">4:forty</text>
</g>
<!-- 2&#45;&gt;19 -->
<g id="edge46" class="edge"><title>2&#45;&gt;19</title>
<path fill="none" stroke="black" d="M843.521,-1476.48C861.277,-1485.38 890.525,-1499.22 917,-1507.93 954.183,-1520.16 967.223,-1511.04 1003,-1526.93 1026.34,-1537.29 1049.76,-1554.2 1066.85,-1568.03"/>
<polygon fill="black" stroke="black" points="1064.78,-1570.85 1074.71,-1574.53 1069.24,-1565.46 1064.78,-1570.85"/>
<text text-anchor="middle" x="960" y="-1532.33" font-family="Times Roman,serif" font-size="14.00">5:fifty</text>
</g>
<!-- 2&#45;&gt;19 -->
<g id="edge48" class="edge"><title>2&#45;&gt;19</title>
<path fill="none" stroke="black" d="M845.561,-1468.1C885.05,-1468.76 975.989,-1471.79 1003,-1485.93 1035.02,-1502.68 1060.5,-1536.03 1076.06,-1560.67"/>
<polygon fill="black" stroke="black" points="1073.14,-1562.6 1081.34,-1569.31 1079.11,-1558.95 1073.14,-1562.6"/>
<text text-anchor="middle" x="960" y="-1491.33" font-family="Times Roman,serif" font-size="14.00">6:sixty</text>
</g>
<!-- 2&#45;&gt;19 -->
<g id="edge50" class="edge"><title>2&#45;&gt;19</title>
<path fill="none" stroke="black" d="M843.777,-1460.07C876.624,-1445.92 950.761,-1420.19 1003,-1448.93 1045.01,-1472.04 1070.17,-1523.97 1082.8,-1558.21"/>
<polygon fill="black" stroke="black" points="1079.55,-1559.52 1086.18,-1567.79 1086.15,-1557.19 1079.55,-1559.52"/>
<text text-anchor="middle" x="960" y="-1454.33" font-family="Times Roman,serif" font-size="14.00">7:seventy</text>
</g>
<!-- 2&#45;&gt;19 -->
<g id="edge52" class="edge"><title>2&#45;&gt;19</title>
<path fill="none" stroke="black" d="M841.22,-1456C872.484,-1431.3 948.734,-1379.56 1003,-1412.93 1054.23,-1444.43 1077.37,-1515.12 1086.96,-1557.32"/>
<polygon fill="black" stroke="black" points="1083.55,-1558.09 1089.06,-1567.14 1090.39,-1556.63 1083.55,-1558.09"/>
<text text-anchor="middle" x="960" y="-1418.33" font-family="Times Roman,serif" font-size="14.00">8:eighty</text>
</g>
<!-- 2&#45;&gt;19 -->
<g id="edge54" class="edge"><title>2&#45;&gt;19</title>
<path fill="none" stroke="black" d="M836.942,-1452.49C851.539,-1431.42 880.98,-1394.61 917,-1379.93 952.394,-1365.5 971.109,-1358.86 1003,-1379.93 1062.9,-1419.5 1083.07,-1507.97 1089.76,-1556.85"/>
<polygon fill="black" stroke="black" points="1086.31,-1557.45 1091.02,-1566.93 1093.25,-1556.58 1086.31,-1557.45"/>
<text text-anchor="middle" x="960" y="-1385.33" font-family="Times Roman,serif" font-size="14.00">9:ninety</text>
</g>
<!-- 20 -->
<g id="node41" class="node"><title>20</title>
<ellipse fill="none" stroke="black" cx="1093" cy="-1262.93" rx="24.2437" ry="24.7487"/>
<text text-anchor="middle" x="1093" y="-1259.33" font-family="Times Roman,serif" font-size="14.00">20</text>
</g>
<!-- 2&#45;&gt;20 -->
<g id="edge56" class="edge"><title>2&#45;&gt;20</title>
<path fill="none" stroke="black" d="M835.374,-1451.39C849.222,-1425.45 879.163,-1374.97 917,-1343.93 960.258,-1308.43 1021.62,-1284.86 1059.29,-1272.71"/>
<polygon fill="black" stroke="black" points="1060.75,-1275.92 1069.25,-1269.58 1058.66,-1269.24 1060.75,-1275.92"/>
<text text-anchor="middle" x="960" y="-1349.33" font-family="Times Roman,serif" font-size="14.00">1:&lt;epsilon&gt;</text>
</g>
<!-- 18 -->
<g id="node43" class="node"><title>18</title>
<ellipse fill="none" stroke="black" cx="1373" cy="-1241.93" rx="24.2437" ry="24.7487"/>
<text text-anchor="middle" x="1373" y="-1238.33" font-family="Times Roman,serif" font-size="14.00">18</text>
</g>
<!-- 3&#45;&gt;18 -->
<g id="edge58" class="edge"><title>3&#45;&gt;18</title>
<path fill="none" stroke="black" d="M1097.51,-849.637C1107.11,-883.527 1132.88,-957.501 1183,-994.927 1237.69,-1035.77 1285.5,-978.899 1333,-1027.93 1357.35,-1053.06 1367.4,-1153.78 1371.1,-1207.61"/>
<polygon fill="black" stroke="black" points="1367.61,-1207.96 1371.76,-1217.71 1374.6,-1207.5 1367.61,-1207.96"/>
<text text-anchor="middle" x="1258" y="-1033.33" font-family="Times Roman,serif" font-size="14.00">1:one</text>
</g>
<!-- 3&#45;&gt;18 -->
<g id="edge60" class="edge"><title>3&#45;&gt;18</title>
<path fill="none" stroke="black" d="M1100.04,-848.747C1112.4,-875.975 1140.78,-929.153 1183,-953.927 1240.96,-987.933 1284.97,-925.926 1333,-972.927 1349.54,-989.109 1364.2,-1138.22 1370.16,-1207.2"/>
<polygon fill="black" stroke="black" points="1366.71,-1207.89 1371.05,-1217.56 1373.68,-1207.3 1366.71,-1207.89"/>
<text text-anchor="middle" x="1258" y="-978.327" font-family="Times Roman,serif" font-size="14.00">2:two</text>
</g>
<!-- 3&#45;&gt;18 -->
<g id="edge62" class="edge"><title>3&#45;&gt;18</title>
<path fill="none" stroke="black" d="M1104.28,-846.523C1119.78,-865.384 1149.55,-897.611 1183,-912.927 1213.55,-926.915 1309.21,-908.196 1333,-931.927 1352.31,-951.19 1365.96,-1131.39 1370.93,-1207.87"/>
<polygon fill="black" stroke="black" points="1367.44,-1208.18 1371.57,-1217.94 1374.43,-1207.74 1367.44,-1208.18"/>
<text text-anchor="middle" x="1258" y="-937.327" font-family="Times Roman,serif" font-size="14.00">3:three</text>
</g>
<!-- 3&#45;&gt;18 -->
<g id="edge64" class="edge"><title>3&#45;&gt;18</title>
<path fill="none" stroke="black" d="M1109.37,-840.962C1127.01,-850.268 1156.15,-864.436 1183,-871.927 1215.36,-880.957 1309.39,-867.02 1333,-890.927 1355.03,-913.238 1367.39,-1123.89 1371.47,-1207.74"/>
<polygon fill="black" stroke="black" points="1367.98,-1207.96 1371.95,-1217.78 1374.97,-1207.62 1367.98,-1207.96"/>
<text text-anchor="middle" x="1258" y="-896.327" font-family="Times Roman,serif" font-size="14.00">4:four</text>
</g>
<!-- 3&#45;&gt;18 -->
<g id="edge66" class="edge"><title>3&#45;&gt;18</title>
<path fill="none" stroke="black" d="M1111.56,-831.977C1165.13,-832.304 1317.24,-834.588 1333,-849.927 1358.43,-874.685 1368.92,-1116.92 1371.98,-1207.76"/>
<polygon fill="black" stroke="black" points="1368.48,-1207.93 1372.31,-1217.81 1375.48,-1207.7 1368.48,-1207.93"/>
<text text-anchor="middle" x="1258" y="-855.327" font-family="Times Roman,serif" font-size="14.00">5:five</text>
</g>
<!-- 3&#45;&gt;18 -->
<g id="edge68" class="edge"><title>3&#45;&gt;18</title>
<path fill="none" stroke="black" d="M1111.03,-827.176C1161.18,-814.451 1300.71,-782.497 1333,-811.927 1362.08,-838.425 1370.36,-1110.5 1372.4,-1207.67"/>
<polygon fill="black" stroke="black" points="1368.91,-1207.91 1372.61,-1217.84 1375.91,-1207.77 1368.91,-1207.91"/>
<text text-anchor="middle" x="1258" y="-817.327" font-family="Times Roman,serif" font-size="14.00">6:six</text>
</g>
<!-- 3&#45;&gt;18 -->
<g id="edge70" class="edge"><title>3&#45;&gt;18</title>
<path fill="none" stroke="black" d="M1107.94,-820.822C1149.45,-791.407 1267.39,-717.726 1333,-777.927 1364.54,-806.865 1371.27,-1105.4 1372.65,-1207.73"/>
<polygon fill="black" stroke="black" points="1369.16,-1207.88 1372.78,-1217.84 1376.16,-1207.79 1369.16,-1207.88"/>
<text text-anchor="middle" x="1258" y="-783.327" font-family="Times Roman,serif" font-size="14.00">7:seven</text>
</g>
<!-- 3&#45;&gt;18 -->
<g id="edge72" class="edge"><title>3&#45;&gt;18</title>
<path fill="none" stroke="black" d="M1101.79,-815.952C1115.58,-792.771 1144.72,-750.745 1183,-733.927 1213.52,-720.519 1308.52,-711.301 1333,-733.927 1350.43,-750.034 1366.74,-1096.05 1371.57,-1207.6"/>
<polygon fill="black" stroke="black" points="1368.07,-1207.8 1372,-1217.64 1375.06,-1207.5 1368.07,-1207.8"/>
<text text-anchor="middle" x="1258" y="-739.327" font-family="Times Roman,serif" font-size="14.00">8:eight</text>
</g>
<!-- 3&#45;&gt;18 -->
<g id="edge74" class="edge"><title>3&#45;&gt;18</title>
<path fill="none" stroke="black" d="M1098.7,-814.441C1109.58,-784.35 1136.46,-723.63 1183,-698.927 1241.89,-667.673 1284.16,-653.551 1333,-698.927 1351.7,-716.299 1367.32,-1090.95 1371.75,-1207.58"/>
<polygon fill="black" stroke="black" points="1368.25,-1207.87 1372.13,-1217.73 1375.25,-1207.61 1368.25,-1207.87"/>
<text text-anchor="middle" x="1258" y="-704.327" font-family="Times Roman,serif" font-size="14.00">9:nine</text>
</g>
<!-- 4&#45;&gt;5 -->
<g id="edge94" class="edge"><title>4&#45;&gt;5</title>
<path fill="none" stroke="black" d="M1598.06,-1226.01C1600.72,-1264.32 1609.09,-1351.66 1631,-1369.93 1772.03,-1487.51 2021.22,-1419.71 2103.66,-1392.56"/>
<polygon fill="black" stroke="black" points="2104.94,-1395.82 2113.31,-1389.32 2102.71,-1389.19 2104.94,-1395.82"/>
<text text-anchor="middle" x="1871" y="-1441.33" font-family="Times Roman,serif" font-size="14.00">0:&lt;epsilon&gt;</text>
</g>
<!-- 17 -->
<g id="node53" class="node"><title>17</title>
<ellipse fill="none" stroke="black" cx="1871" cy="-1212.93" rx="24.2437" ry="24.7487"/>
<text text-anchor="middle" x="1871" y="-1209.33" font-family="Times Roman,serif" font-size="14.00">17</text>
</g>
<!-- 4&#45;&gt;17 -->
<g id="edge76" class="edge"><title>4&#45;&gt;17</title>
<path fill="none" stroke="black" d="M1599.15,-1226.01C1603.35,-1257.83 1613.75,-1321.69 1631,-1334.93 1657.44,-1355.22 1751.24,-1349.95 1781,-1334.93 1818.05,-1316.22 1843.6,-1274.28 1857.76,-1244.81"/>
<polygon fill="black" stroke="black" points="1861.12,-1245.9 1862.13,-1235.35 1854.76,-1242.97 1861.12,-1245.9"/>
<text text-anchor="middle" x="1706" y="-1353.33" font-family="Times Roman,serif" font-size="14.00">1:one</text>
</g>
<!-- 4&#45;&gt;17 -->
<g id="edge78" class="edge"><title>4&#45;&gt;17</title>
<path fill="none" stroke="black" d="M1598.38,-1226.05C1601.02,-1246.46 1608.7,-1278.76 1631,-1293.93 1658.56,-1312.67 1749.88,-1305.87 1781,-1293.93 1808.82,-1283.25 1833.42,-1259.56 1849.85,-1240.55"/>
<polygon fill="black" stroke="black" points="1852.65,-1242.65 1856.37,-1232.73 1847.27,-1238.17 1852.65,-1242.65"/>
<text text-anchor="middle" x="1706" y="-1310.33" font-family="Times Roman,serif" font-size="14.00">2:two</text>
</g>
<!-- 4&#45;&gt;17 -->
<g id="edge80" class="edge"><title>4&#45;&gt;17</title>
<path fill="none" stroke="black" d="M1604.55,-1224.41C1610.23,-1234.66 1619.08,-1246.99 1631,-1252.93 1690.68,-1282.64 1715.79,-1266.77 1781,-1252.93 1801.89,-1248.49 1823.81,-1238.87 1840.79,-1230.17"/>
<polygon fill="black" stroke="black" points="1842.47,-1233.24 1849.68,-1225.47 1839.2,-1227.05 1842.47,-1233.24"/>
<text text-anchor="middle" x="1706" y="-1274.33" font-family="Times Roman,serif" font-size="14.00">3:three</text>
</g>
<!-- 4&#45;&gt;17 -->
<g id="edge82" class="edge"><title>4&#45;&gt;17</title>
<path fill="none" stroke="black" d="M1615.32,-1210.47C1620.39,-1211.06 1625.9,-1211.62 1631,-1211.93 1703.93,-1216.35 1789.54,-1215.19 1836.26,-1214.01"/>
<polygon fill="black" stroke="black" points="1836.54,-1217.5 1846.44,-1213.74 1836.35,-1210.51 1836.54,-1217.5"/>
<text text-anchor="middle" x="1706" y="-1220.33" font-family="Times Roman,serif" font-size="14.00">4:four</text>
</g>
<!-- 4&#45;&gt;17 -->
<g id="edge84" class="edge"><title>4&#45;&gt;17</title>
<path fill="none" stroke="black" d="M1612.61,-1197.62C1618.18,-1194.51 1624.65,-1191.5 1631,-1189.93 1695.7,-1173.86 1714.85,-1181.61 1781,-1189.93 1800.08,-1192.33 1820.91,-1197.48 1837.73,-1202.3"/>
<polygon fill="black" stroke="black" points="1837.04,-1205.75 1847.62,-1205.24 1839.03,-1199.04 1837.04,-1205.75"/>
<text text-anchor="middle" x="1706" y="-1195.33" font-family="Times Roman,serif" font-size="14.00">5:five</text>
</g>
<!-- 4&#45;&gt;17 -->
<g id="edge86" class="edge"><title>4&#45;&gt;17</title>
<path fill="none" stroke="black" d="M1603.62,-1190.67C1609.06,-1179.11 1618.01,-1164.8 1631,-1157.93 1689.92,-1126.74 1716.83,-1139.87 1781,-1157.93 1803.97,-1164.39 1826.87,-1178.52 1843.82,-1190.84"/>
<polygon fill="black" stroke="black" points="1842.02,-1193.86 1852.11,-1197.07 1846.22,-1188.26 1842.02,-1193.86"/>
<text text-anchor="middle" x="1706" y="-1163.33" font-family="Times Roman,serif" font-size="14.00">6:six</text>
</g>
<!-- 4&#45;&gt;17 -->
<g id="edge88" class="edge"><title>4&#45;&gt;17</title>
<path fill="none" stroke="black" d="M1601.11,-1190.11C1607.05,-1166.14 1618.67,-1125.48 1631,-1116.93 1685.77,-1078.92 1719.83,-1090.42 1781,-1116.93 1812.04,-1130.38 1837.29,-1160.39 1853.05,-1183.3"/>
<polygon fill="black" stroke="black" points="1850.17,-1185.29 1858.62,-1191.68 1856,-1181.42 1850.17,-1185.29"/>
<text text-anchor="middle" x="1706" y="-1122.33" font-family="Times Roman,serif" font-size="14.00">7:seven</text>
</g>
<!-- 4&#45;&gt;17 -->
<g id="edge90" class="edge"><title>4&#45;&gt;17</title>
<path fill="none" stroke="black" d="M1598.73,-1189.9C1602.4,-1155.96 1612.21,-1084.65 1631,-1069.93 1657.24,-1049.37 1751.82,-1053.81 1781,-1069.93 1823.19,-1093.22 1848.29,-1145.51 1860.87,-1179.98"/>
<polygon fill="black" stroke="black" points="1857.63,-1181.34 1864.23,-1189.63 1864.24,-1179.03 1857.63,-1181.34"/>
<text text-anchor="middle" x="1706" y="-1075.33" font-family="Times Roman,serif" font-size="14.00">8:eight</text>
</g>
<!-- 4&#45;&gt;17 -->
<g id="edge92" class="edge"><title>4&#45;&gt;17</title>
<path fill="none" stroke="black" d="M1597.74,-1189.7C1599.82,-1149.16 1607.18,-1053.54 1631,-1033.93 1682.46,-991.547 1724.25,-998.941 1781,-1033.93 1832.42,-1065.63 1855.5,-1136.71 1865.02,-1179.14"/>
<polygon fill="black" stroke="black" points="1861.61,-1179.95 1867.11,-1189.01 1868.46,-1178.5 1861.61,-1179.95"/>
<text text-anchor="middle" x="1706" y="-1039.33" font-family="Times Roman,serif" font-size="14.00">9:nine</text>
</g>
<!-- 15 -->
<g id="node64" class="node"><title>15</title>
<ellipse fill="none" stroke="black" cx="2291" cy="-1464.93" rx="24.2437" ry="24.7487"/>
<text text-anchor="middle" x="2291" y="-1461.33" font-family="Times Roman,serif" font-size="14.00">15</text>
</g>
<!-- 5&#45;&gt;15 -->
<g id="edge96" class="edge"><title>5&#45;&gt;15</title>
<path fill="none" stroke="black" d="M2131.55,-1401.13C2133.24,-1443.19 2139.9,-1545.06 2165,-1565.93 2194.39,-1590.36 2219.39,-1587.41 2251,-1565.93 2262.76,-1557.94 2274.54,-1524.34 2282.24,-1498.06"/>
<polygon fill="black" stroke="black" points="2285.61,-1498.99 2284.98,-1488.41 2278.88,-1497.07 2285.61,-1498.99"/>
<text text-anchor="middle" x="2208" y="-1588.33" font-family="Times Roman,serif" font-size="14.00">0:&lt;epsilon&gt;</text>
</g>
<!-- 5&#45;&gt;15 -->
<g id="edge98" class="edge"><title>5&#45;&gt;15</title>
<path fill="none" stroke="black" d="M2132.59,-1400.93C2136.07,-1435.62 2145.64,-1509.66 2165,-1524.93 2195.01,-1548.6 2217.3,-1542.96 2251,-1524.93 2262.47,-1518.79 2271.22,-1507.75 2277.56,-1496.8"/>
<polygon fill="black" stroke="black" points="2280.78,-1498.21 2282.34,-1487.73 2274.58,-1494.95 2280.78,-1498.21"/>
<text text-anchor="middle" x="2208" y="-1545.33" font-family="Times Roman,serif" font-size="14.00">2:twenty</text>
</g>
<!-- 5&#45;&gt;15 -->
<g id="edge100" class="edge"><title>5&#45;&gt;15</title>
<path fill="none" stroke="black" d="M2134.45,-1400.9C2139.91,-1427.2 2151.33,-1474.1 2165,-1483.93 2192.64,-1503.79 2232.57,-1492.91 2260.03,-1481.07"/>
<polygon fill="black" stroke="black" points="2261.54,-1484.23 2269.19,-1476.89 2258.64,-1477.86 2261.54,-1484.23"/>
<text text-anchor="middle" x="2208" y="-1499.33" font-family="Times Roman,serif" font-size="14.00">3:thirty</text>
</g>
<!-- 5&#45;&gt;15 -->
<g id="edge102" class="edge"><title>5&#45;&gt;15</title>
<path fill="none" stroke="black" d="M2136.21,-1400.22C2141.29,-1414.01 2150.42,-1432.65 2165,-1442.93 2179.35,-1453.04 2224.04,-1459.06 2256.12,-1462.17"/>
<polygon fill="black" stroke="black" points="2256.18,-1465.69 2266.46,-1463.12 2256.82,-1458.72 2256.18,-1465.69"/>
<text text-anchor="middle" x="2208" y="-1466.33" font-family="Times Roman,serif" font-size="14.00">4:forty</text>
</g>
<!-- 5&#45;&gt;15 -->
<g id="edge104" class="edge"><title>5&#45;&gt;15</title>
<path fill="none" stroke="black" d="M2146.79,-1393.01C2152.37,-1396.23 2158.81,-1399.57 2165,-1401.93 2201.59,-1415.84 2217.13,-1401.3 2251,-1420.93 2258.16,-1425.08 2264.76,-1430.94 2270.44,-1437.04"/>
<polygon fill="black" stroke="black" points="2267.94,-1439.5 2277.13,-1444.78 2273.24,-1434.92 2267.94,-1439.5"/>
<text text-anchor="middle" x="2208" y="-1426.33" font-family="Times Roman,serif" font-size="14.00">5:fifty</text>
</g>
<!-- 5&#45;&gt;15 -->
<g id="edge106" class="edge"><title>5&#45;&gt;15</title>
<path fill="none" stroke="black" d="M2148.49,-1376.85C2173.38,-1369.37 2219.5,-1359.94 2251,-1379.93 2268.86,-1391.26 2278.89,-1412.93 2284.44,-1431.55"/>
<polygon fill="black" stroke="black" points="2281.06,-1432.45 2287.02,-1441.21 2287.82,-1430.65 2281.06,-1432.45"/>
<text text-anchor="middle" x="2208" y="-1385.33" font-family="Times Roman,serif" font-size="14.00">6:sixty</text>
</g>
<!-- 5&#45;&gt;15 -->
<g id="edge108" class="edge"><title>5&#45;&gt;15</title>
<path fill="none" stroke="black" d="M2140.61,-1367.41C2146.54,-1359.38 2154.94,-1350.35 2165,-1345.93 2200,-1330.56 2219.96,-1323.62 2251,-1345.93 2265.07,-1356.04 2277.1,-1399.51 2284.19,-1430.99"/>
<polygon fill="black" stroke="black" points="2280.85,-1432.11 2286.4,-1441.14 2287.69,-1430.62 2280.85,-1432.11"/>
<text text-anchor="middle" x="2208" y="-1351.33" font-family="Times Roman,serif" font-size="14.00">7:seventy</text>
</g>
<!-- 5&#45;&gt;15 -->
<g id="edge110" class="edge"><title>5&#45;&gt;15</title>
<path fill="none" stroke="black" d="M2133.65,-1364.99C2137.33,-1347.31 2145.84,-1321.21 2165,-1308.93 2197.18,-1288.3 2220.8,-1285.5 2251,-1308.93 2270.05,-1323.71 2281.59,-1389.39 2287.09,-1430.67"/>
<polygon fill="black" stroke="black" points="2283.65,-1431.37 2288.39,-1440.85 2290.59,-1430.48 2283.65,-1431.37"/>
<text text-anchor="middle" x="2208" y="-1314.33" font-family="Times Roman,serif" font-size="14.00">8:eighty</text>
</g>
<!-- 5&#45;&gt;15 -->
<g id="edge112" class="edge"><title>5&#45;&gt;15</title>
<path fill="none" stroke="black" d="M2133.81,-1364.75C2138.69,-1335.8 2149.71,-1281.29 2165,-1269.93 2195.67,-1247.12 2221.38,-1245.77 2251,-1269.93 2275.38,-1289.81 2285.31,-1380.03 2289.02,-1430.49"/>
<polygon fill="black" stroke="black" points="2285.54,-1430.88 2289.72,-1440.62 2292.52,-1430.4 2285.54,-1430.88"/>
<text text-anchor="middle" x="2208" y="-1275.33" font-family="Times Roman,serif" font-size="14.00">9:ninety</text>
</g>
<!-- 16 -->
<g id="node74" class="node"><title>16</title>
<ellipse fill="none" stroke="black" cx="2291" cy="-1132.93" rx="24.2437" ry="24.7487"/>
<text text-anchor="middle" x="2291" y="-1129.33" font-family="Times Roman,serif" font-size="14.00">16</text>
</g>
<!-- 5&#45;&gt;16 -->
<g id="edge114" class="edge"><title>5&#45;&gt;16</title>
<path fill="none" stroke="black" d="M2133.45,-1364.82C2138.49,-1329.37 2150.76,-1252.31 2165,-1229.93 2188.4,-1193.15 2230.88,-1164.84 2259.99,-1148.54"/>
<polygon fill="black" stroke="black" points="2261.82,-1151.53 2268.93,-1143.67 2258.47,-1145.38 2261.82,-1151.53"/>
<text text-anchor="middle" x="2208" y="-1235.33" font-family="Times Roman,serif" font-size="14.00">1:&lt;epsilon&gt;</text>
</g>
<!-- 14 -->
<g id="node76" class="node"><title>14</title>
<ellipse fill="none" stroke="black" cx="2457" cy="-1111.93" rx="24.2437" ry="24.7487"/>
<text text-anchor="middle" x="2457" y="-1108.33" font-family="Times Roman,serif" font-size="14.00">14</text>
</g>
<!-- 6&#45;&gt;14 -->
<g id="edge116" class="edge"><title>6&#45;&gt;14</title>
<path fill="none" stroke="black" d="M2293.56,-719.999C2299.17,-757.487 2313.46,-842.119 2331,-864.927 2357.56,-899.453 2391.2,-876.834 2417,-911.927 2436.09,-937.895 2448.26,-1028.07 2453.69,-1078"/>
<polygon fill="black" stroke="black" points="2450.22,-1078.43 2454.75,-1088.01 2457.18,-1077.7 2450.22,-1078.43"/>
<text text-anchor="middle" x="2374" y="-917.327" font-family="Times Roman,serif" font-size="14.00">1:one</text>
</g>
<!-- 6&#45;&gt;14 -->
<g id="edge118" class="edge"><title>6&#45;&gt;14</title>
<path fill="none" stroke="black" d="M2294.58,-719.718C2301.02,-750.03 2315.38,-809.791 2331,-823.927 2360.02,-850.197 2390.3,-814.299 2417,-842.927 2432.78,-859.848 2447.85,-1008.56 2454.04,-1077.33"/>
<polygon fill="black" stroke="black" points="2450.58,-1077.99 2454.96,-1087.64 2457.56,-1077.37 2450.58,-1077.99"/>
<text text-anchor="middle" x="2374" y="-848.327" font-family="Times Roman,serif" font-size="14.00">2:two</text>
</g>
<!-- 6&#45;&gt;14 -->
<g id="edge120" class="edge"><title>6&#45;&gt;14</title>
<path fill="none" stroke="black" d="M2294.94,-719.644C2300.03,-738.28 2310.76,-767.06 2331,-782.927 2361.81,-807.074 2390.58,-773.042 2417,-801.927 2435.36,-822.005 2449.51,-1000.9 2454.77,-1077.44"/>
<polygon fill="black" stroke="black" points="2451.28,-1077.79 2455.45,-1087.53 2458.27,-1077.32 2451.28,-1077.79"/>
<text text-anchor="middle" x="2374" y="-807.327" font-family="Times Roman,serif" font-size="14.00">3:three</text>
</g>
<!-- 6&#45;&gt;14 -->
<g id="edge122" class="edge"><title>6&#45;&gt;14</title>
<path fill="none" stroke="black" d="M2302.06,-716.604C2309.35,-725.256 2319.63,-735.696 2331,-741.927 2365.33,-760.742 2390.8,-731.847 2417,-760.927 2437.99,-784.221 2450.97,-994.288 2455.34,-1077.86"/>
<polygon fill="black" stroke="black" points="2451.85,-1078.06 2455.86,-1087.86 2458.84,-1077.7 2451.85,-1078.06"/>
<text text-anchor="middle" x="2374" y="-766.327" font-family="Times Roman,serif" font-size="14.00">4:four</text>
</g>
<!-- 6&#45;&gt;14 -->
<g id="edge124" class="edge"><title>6&#45;&gt;14</title>
<path fill="none" stroke="black" d="M2309.9,-701.891C2341.4,-702.261 2402.61,-704.947 2417,-719.927 2441.59,-745.523 2452.6,-987.239 2455.89,-1077.85"/>
<polygon fill="black" stroke="black" points="2452.39,-1078.01 2456.24,-1087.88 2459.38,-1077.76 2452.39,-1078.01"/>
<text text-anchor="middle" x="2374" y="-725.327" font-family="Times Roman,serif" font-size="14.00">5:five</text>
</g>
<!-- 6&#45;&gt;14 -->
<g id="edge126" class="edge"><title>6&#45;&gt;14</title>
<path fill="none" stroke="black" d="M2306.85,-692.084C2333.25,-677.073 2386.35,-652.991 2417,-680.927 2446.14,-707.489 2454.39,-980.197 2456.41,-1077.59"/>
<polygon fill="black" stroke="black" points="2452.91,-1077.85 2456.61,-1087.78 2459.91,-1077.71 2452.91,-1077.85"/>
<text text-anchor="middle" x="2374" y="-686.327" font-family="Times Roman,serif" font-size="14.00">6:six</text>
</g>
<!-- 6&#45;&gt;14 -->
<g id="edge128" class="edge"><title>6&#45;&gt;14</title>
<path fill="none" stroke="black" d="M2298.04,-685.053C2304.49,-672 2315.43,-654.856 2331,-646.927 2365.06,-629.582 2388.84,-621.084 2417,-646.927 2448.6,-675.929 2455.29,-975.111 2456.66,-1077.66"/>
<polygon fill="black" stroke="black" points="2453.16,-1077.83 2456.79,-1087.79 2460.16,-1077.74 2453.16,-1077.83"/>
<text text-anchor="middle" x="2374" y="-652.327" font-family="Times Roman,serif" font-size="14.00">7:seven</text>
</g>
<!-- 6&#45;&gt;14 -->
<g id="edge130" class="edge"><title>6&#45;&gt;14</title>
<path fill="none" stroke="black" d="M2292.94,-683.829C2296.37,-661.819 2305.75,-625.552 2331,-608.927 2362.92,-587.907 2388.92,-582.993 2417,-608.927 2434.24,-624.853 2450.66,-966.789 2455.54,-1077.6"/>
<polygon fill="black" stroke="black" points="2452.05,-1078.04 2455.99,-1087.88 2459.05,-1077.74 2452.05,-1078.04"/>
<text text-anchor="middle" x="2374" y="-614.327" font-family="Times Roman,serif" font-size="14.00">8:eight</text>
</g>
<!-- 6&#45;&gt;14 -->
<g id="edge132" class="edge"><title>6&#45;&gt;14</title>
<path fill="none" stroke="black" d="M2293.75,-684.126C2299.2,-651.377 2312.49,-583.659 2331,-569.927 2361.7,-547.153 2389,-543.913 2417,-569.927 2435.67,-587.266 2451.31,-961.225 2455.74,-1077.65"/>
<polygon fill="black" stroke="black" points="2452.25,-1077.92 2456.13,-1087.78 2459.25,-1077.65 2452.25,-1077.92"/>
<text text-anchor="middle" x="2374" y="-575.327" font-family="Times Roman,serif" font-size="14.00">9:nine</text>
</g>
<!-- 7&#45;&gt;8 -->
<g id="edge134" class="edge"><title>7&#45;&gt;8</title>
<path fill="none" stroke="black" d="M2674.22,-785.121C2677.12,-822.299 2685.86,-904.918 2707,-921.927 2801.36,-997.834 2961.31,-933.76 3023.34,-904.059"/>
<polygon fill="black" stroke="black" points="3024.99,-907.151 3032.43,-899.614 3021.91,-900.862 3024.99,-907.151"/>
<text text-anchor="middle" x="2821" y="-963.327" font-family="Times Roman,serif" font-size="14.00">0:&lt;epsilon&gt;</text>
</g>
<!-- 13 -->
<g id="node87" class="node"><title>13</title>
<ellipse fill="none" stroke="black" cx="2821" cy="-766.927" rx="24.2437" ry="24.7487"/>
<text text-anchor="middle" x="2821" y="-763.327" font-family="Times Roman,serif" font-size="14.00">13</text>
</g>
<!-- 7&#45;&gt;13 -->
<g id="edge136" class="edge"><title>7&#45;&gt;13</title>
<path fill="none" stroke="black" d="M2675.37,-785.04C2679.81,-815.852 2690.45,-876.36 2707,-888.927 2726.82,-903.979 2741.96,-902.221 2763,-888.927 2793.37,-869.737 2808.16,-829.829 2815.15,-800.869"/>
<polygon fill="black" stroke="black" points="2818.64,-801.273 2817.38,-790.753 2811.8,-799.763 2818.64,-801.273"/>
<text text-anchor="middle" x="2735" y="-905.327" font-family="Times Roman,serif" font-size="14.00">1:one</text>
</g>
<!-- 7&#45;&gt;13 -->
<g id="edge138" class="edge"><title>7&#45;&gt;13</title>
<path fill="none" stroke="black" d="M2674.89,-785.074C2677.98,-804.374 2686.04,-833.996 2707,-847.927 2727.73,-861.706 2740.86,-859.303 2763,-847.927 2783.17,-837.56 2797.9,-816.558 2807.46,-798.538"/>
<polygon fill="black" stroke="black" points="2810.66,-799.969 2812,-789.459 2804.4,-796.842 2810.66,-799.969"/>
<text text-anchor="middle" x="2735" y="-863.327" font-family="Times Roman,serif" font-size="14.00">2:two</text>
</g>
<!-- 7&#45;&gt;13 -->
<g id="edge140" class="edge"><title>7&#45;&gt;13</title>
<path fill="none" stroke="black" d="M2681.79,-782.844C2687.65,-791.716 2696.25,-801.954 2707,-806.927 2729.59,-817.374 2739.24,-814.327 2763,-806.927 2774.45,-803.363 2785.63,-796.666 2795.07,-789.757"/>
<polygon fill="black" stroke="black" points="2797.46,-792.333 2803.21,-783.436 2793.17,-786.804 2797.46,-792.333"/>
<text text-anchor="middle" x="2735" y="-819.327" font-family="Times Roman,serif" font-size="14.00">3:three</text>
</g>
<!-- 7&#45;&gt;13 -->
<g id="edge142" class="edge"><title>7&#45;&gt;13</title>
<path fill="none" stroke="black" d="M2691.74,-766.927C2715.37,-766.927 2756.44,-766.927 2785.96,-766.927"/>
<polygon fill="black" stroke="black" points="2786.25,-770.427 2796.25,-766.927 2786.25,-763.427 2786.25,-770.427"/>
<text text-anchor="middle" x="2735" y="-772.327" font-family="Times Roman,serif" font-size="14.00">4:four</text>
</g>
<!-- 7&#45;&gt;13 -->
<g id="edge144" class="edge"><title>7&#45;&gt;13</title>
<path fill="none" stroke="black" d="M2687.31,-755.06C2693.06,-751.017 2699.99,-746.998 2707,-744.927 2730.87,-737.878 2738.52,-740.44 2763,-744.927 2771.83,-746.546 2781.06,-749.443 2789.5,-752.616"/>
<polygon fill="black" stroke="black" points="2788.37,-755.936 2798.96,-756.405 2790.98,-749.438 2788.37,-755.936"/>
<text text-anchor="middle" x="2735" y="-750.327" font-family="Times Roman,serif" font-size="14.00">5:five</text>
</g>
<!-- 7&#45;&gt;13 -->
<g id="edge146" class="edge"><title>7&#45;&gt;13</title>
<path fill="none" stroke="black" d="M2680.03,-749.86C2685.58,-738.843 2694.48,-725.4 2707,-718.927 2729.11,-707.494 2739.58,-710.494 2763,-718.927 2775.81,-723.54 2787.8,-732.344 2797.51,-741.167"/>
<polygon fill="black" stroke="black" points="2795.15,-743.755 2804.78,-748.166 2800,-738.711 2795.15,-743.755"/>
<text text-anchor="middle" x="2735" y="-724.327" font-family="Times Roman,serif" font-size="14.00">6:six</text>
</g>
<!-- 7&#45;&gt;13 -->
<g id="edge148" class="edge"><title>7&#45;&gt;13</title>
<path fill="none" stroke="black" d="M2675.3,-748.973C2678.72,-730.591 2687.04,-702.931 2707,-689.927 2727.85,-676.339 2740.73,-678.819 2763,-689.927 2782.21,-699.506 2796.73,-718.813 2806.43,-735.696"/>
<polygon fill="black" stroke="black" points="2803.5,-737.619 2811.33,-744.749 2809.65,-734.288 2803.5,-737.619"/>
<text text-anchor="middle" x="2735" y="-695.327" font-family="Times Roman,serif" font-size="14.00">7:seven</text>
</g>
<!-- 7&#45;&gt;13 -->
<g id="edge150" class="edge"><title>7&#45;&gt;13</title>
<path fill="none" stroke="black" d="M2676.01,-749.095C2681.11,-721.294 2692.34,-669.682 2707,-658.927 2727.07,-644.205 2741.64,-646.152 2763,-658.927 2789.77,-674.935 2804.9,-708.007 2812.94,-733.36"/>
<polygon fill="black" stroke="black" points="2809.59,-734.389 2815.78,-742.991 2816.31,-732.409 2809.59,-734.389"/>
<text text-anchor="middle" x="2735" y="-664.327" font-family="Times Roman,serif" font-size="14.00">8:eight</text>
</g>
<!-- 7&#45;&gt;13 -->
<g id="edge152" class="edge"><title>7&#45;&gt;13</title>
<path fill="none" stroke="black" d="M2674.66,-748.908C2678.24,-714.589 2687.93,-641.922 2707,-626.927 2726.57,-611.544 2742.31,-613.1 2763,-626.927 2798.04,-650.336 2811.94,-699.255 2817.43,-732.599"/>
<polygon fill="black" stroke="black" points="2814.02,-733.443 2818.94,-742.826 2820.94,-732.423 2814.02,-733.443"/>
<text text-anchor="middle" x="2735" y="-632.327" font-family="Times Roman,serif" font-size="14.00">9:nine</text>
</g>
<!-- 11 -->
<g id="node97" class="node"><title>11</title>
<ellipse fill="none" stroke="black" cx="3209" cy="-972.927" rx="24.2437" ry="24.7487"/>
<text text-anchor="middle" x="3209" y="-969.327" font-family="Times Roman,serif" font-size="14.00">11</text>
</g>
<!-- 8&#45;&gt;11 -->
<g id="edge154" class="edge"><title>8&#45;&gt;11</title>
<path fill="none" stroke="black" d="M3049.55,-909.134C3051.24,-951.185 3057.9,-1053.06 3083,-1073.93 3112.39,-1098.36 3137.39,-1095.41 3169,-1073.93 3190.78,-1059.13 3200.7,-1030.43 3205.22,-1007.39"/>
<polygon fill="black" stroke="black" points="3208.71,-1007.72 3206.94,-997.28 3201.81,-1006.55 3208.71,-1007.72"/>
<text text-anchor="middle" x="3126" y="-1096.33" font-family="Times Roman,serif" font-size="14.00">0:&lt;epsilon&gt;</text>
</g>
<!-- 8&#45;&gt;11 -->
<g id="edge156" class="edge"><title>8&#45;&gt;11</title>
<path fill="none" stroke="black" d="M3050.59,-908.931C3054.07,-943.622 3063.64,-1017.66 3083,-1032.93 3113.01,-1056.6 3135.3,-1050.96 3169,-1032.93 3180.47,-1026.79 3189.22,-1015.75 3195.56,-1004.8"/>
<polygon fill="black" stroke="black" points="3198.78,-1006.21 3200.34,-995.729 3192.58,-1002.95 3198.78,-1006.21"/>
<text text-anchor="middle" x="3126" y="-1053.33" font-family="Times Roman,serif" font-size="14.00">2:twenty</text>
</g>
<!-- 8&#45;&gt;11 -->
<g id="edge158" class="edge"><title>8&#45;&gt;11</title>
<path fill="none" stroke="black" d="M3052.45,-908.903C3057.91,-935.199 3069.33,-982.103 3083,-991.927 3110.64,-1011.79 3150.57,-1000.91 3178.03,-989.072"/>
<polygon fill="black" stroke="black" points="3179.54,-992.23 3187.19,-984.893 3176.64,-985.863 3179.54,-992.23"/>
<text text-anchor="middle" x="3126" y="-1007.33" font-family="Times Roman,serif" font-size="14.00">3:thirty</text>
</g>
<!-- 8&#45;&gt;11 -->
<g id="edge160" class="edge"><title>8&#45;&gt;11</title>
<path fill="none" stroke="black" d="M3054.21,-908.223C3059.29,-922.009 3068.42,-940.648 3083,-950.927 3097.35,-961.043 3142.04,-967.055 3174.12,-970.174"/>
<polygon fill="black" stroke="black" points="3174.18,-973.694 3184.46,-971.123 3174.82,-966.723 3174.18,-973.694"/>
<text text-anchor="middle" x="3126" y="-975.327" font-family="Times Roman,serif" font-size="14.00">4:forty</text>
</g>
<!-- 8&#45;&gt;11 -->
<g id="edge162" class="edge"><title>8&#45;&gt;11</title>
<path fill="none" stroke="black" d="M3064.79,-901.013C3070.37,-904.234 3076.81,-907.571 3083,-909.927 3119.59,-923.845 3135.13,-909.3 3169,-928.927 3176.16,-933.076 3182.76,-938.94 3188.44,-945.039"/>
<polygon fill="black" stroke="black" points="3185.94,-947.501 3195.13,-952.779 3191.24,-942.924 3185.94,-947.501"/>
<text text-anchor="middle" x="3126" y="-934.327" font-family="Times Roman,serif" font-size="14.00">5:fifty</text>
</g>
<!-- 8&#45;&gt;11 -->
<g id="edge164" class="edge"><title>8&#45;&gt;11</title>
<path fill="none" stroke="black" d="M3066.49,-884.851C3091.38,-877.37 3137.5,-867.939 3169,-887.927 3186.86,-899.26 3196.89,-920.926 3202.44,-939.546"/>
<polygon fill="black" stroke="black" points="3199.06,-940.452 3205.02,-949.213 3205.82,-938.649 3199.06,-940.452"/>
<text text-anchor="middle" x="3126" y="-893.327" font-family="Times Roman,serif" font-size="14.00">6:sixty</text>
</g>
<!-- 8&#45;&gt;11 -->
<g id="edge166" class="edge"><title>8&#45;&gt;11</title>
<path fill="none" stroke="black" d="M3058.99,-875.449C3064.93,-867.725 3073.21,-859.147 3083,-854.927 3118.1,-839.797 3137.94,-832.657 3169,-854.927 3182.98,-864.948 3195.03,-908.052 3202.15,-939.271"/>
<polygon fill="black" stroke="black" points="3198.8,-940.327 3204.37,-949.337 3205.63,-938.818 3198.8,-940.327"/>
<text text-anchor="middle" x="3126" y="-860.327" font-family="Times Roman,serif" font-size="14.00">7:seventy</text>
</g>
<!-- 8&#45;&gt;11 -->
<g id="edge168" class="edge"><title>8&#45;&gt;11</title>
<path fill="none" stroke="black" d="M3051.88,-873.14C3055.71,-855.931 3064.32,-830.765 3083,-818.927 3115.29,-798.468 3138.77,-795.542 3169,-818.927 3187.79,-833.463 3199.39,-898.002 3204.98,-938.779"/>
<polygon fill="black" stroke="black" points="3201.53,-939.38 3206.3,-948.839 3208.47,-938.467 3201.53,-939.38"/>
<text text-anchor="middle" x="3126" y="-824.327" font-family="Times Roman,serif" font-size="14.00">8:eighty</text>
</g>
<!-- 8&#45;&gt;11 -->
<g id="edge170" class="edge"><title>8&#45;&gt;11</title>
<path fill="none" stroke="black" d="M3051.96,-872.769C3056.99,-844.46 3068.12,-791.902 3083,-780.927 3113.76,-758.239 3139.34,-756.813 3169,-780.927 3192.99,-800.43 3203.07,-888.865 3206.91,-938.631"/>
<polygon fill="black" stroke="black" points="3203.42,-938.905 3207.63,-948.625 3210.4,-938.398 3203.42,-938.905"/>
<text text-anchor="middle" x="3126" y="-786.327" font-family="Times Roman,serif" font-size="14.00">9:ninety</text>
</g>
<!-- 12 -->
<g id="node107" class="node"><title>12</title>
<ellipse fill="none" stroke="black" cx="3209" cy="-624.927" rx="24.2437" ry="24.7487"/>
<text text-anchor="middle" x="3209" y="-621.327" font-family="Times Roman,serif" font-size="14.00">12</text>
</g>
<!-- 8&#45;&gt;12 -->
<g id="edge172" class="edge"><title>8&#45;&gt;12</title>
<path fill="none" stroke="black" d="M3049.73,-872.712C3051.64,-843.322 3058.47,-784.442 3083,-741.927 3107.07,-700.219 3150.83,-664.618 3179.92,-643.987"/>
<polygon fill="black" stroke="black" points="3182.21,-646.653 3188.43,-638.075 3178.22,-640.903 3182.21,-646.653"/>
<text text-anchor="middle" x="3126" y="-747.327" font-family="Times Roman,serif" font-size="14.00">1:&lt;epsilon&gt;</text>
</g>
<!-- 10 -->
<g id="node109" class="node"><title>10</title>
<ellipse fill="none" stroke="black" cx="3379" cy="-603.927" rx="24.3145" ry="24.7487"/>
<ellipse fill="none" stroke="black" cx="3379" cy="-603.927" rx="28.2444" ry="28.7487"/>
<text text-anchor="middle" x="3379" y="-600.327" font-family="Times Roman,serif" font-size="14.00">10</text>
</g>
<!-- 9&#45;&gt;10 -->
<g id="edge174" class="edge"><title>9&#45;&gt;10</title>
<path fill="none" stroke="black" d="M3210.01,-233.351C3212.46,-262.344 3220.77,-319.193 3249,-356.927 3276.04,-393.064 3308.88,-374.119 3335,-410.927 3352.45,-435.523 3366.66,-517.114 3373.86,-565.986"/>
<polygon fill="black" stroke="black" points="3370.4,-566.489 3375.29,-575.885 3377.33,-565.488 3370.4,-566.489"/>
<text text-anchor="middle" x="3292" y="-416.327" font-family="Times Roman,serif" font-size="14.00">0:zero</text>
</g>
<!-- 9&#45;&gt;10 -->
<g id="edge176" class="edge"><title>9&#45;&gt;10</title>
<path fill="none" stroke="black" d="M3210.99,-232.826C3214.52,-255.635 3224.02,-294.647 3249,-315.927 3278.8,-341.311 3308.1,-306.493 3335,-334.927 3365.87,-367.555 3375.15,-499.724 3377.89,-565.855"/>
<polygon fill="black" stroke="black" points="3374.39,-566.019 3378.27,-575.877 3381.39,-565.75 3374.39,-566.019"/>
<text text-anchor="middle" x="3292" y="-340.327" font-family="Times Roman,serif" font-size="14.00">1:one</text>
</g>
<!-- 9&#45;&gt;10 -->
<g id="edge178" class="edge"><title>9&#45;&gt;10</title>
<path fill="none" stroke="black" d="M3215.92,-231.814C3222.43,-245.545 3233.5,-264.322 3249,-274.927 3281.3,-297.033 3308.4,-265.21 3335,-293.927 3353.21,-313.589 3369.48,-486.948 3375.99,-565.516"/>
<polygon fill="black" stroke="black" points="3372.54,-566.266 3376.84,-575.947 3379.51,-565.695 3372.54,-566.266"/>
<text text-anchor="middle" x="3292" y="-299.327" font-family="Times Roman,serif" font-size="14.00">2:two</text>
</g>
<!-- 9&#45;&gt;10 -->
<g id="edge180" class="edge"><title>9&#45;&gt;10</title>
<path fill="none" stroke="black" d="M3225.39,-223.74C3232.49,-227.289 3241,-231.183 3249,-233.927 3286.03,-246.628 3308.63,-223.995 3335,-252.927 3355.8,-275.749 3371.07,-479.335 3376.67,-565.587"/>
<polygon fill="black" stroke="black" points="3373.19,-565.989 3377.32,-575.745 3380.17,-565.542 3373.19,-565.989"/>
<text text-anchor="middle" x="3292" y="-258.327" font-family="Times Roman,serif" font-size="14.00">3:three</text>
</g>
<!-- 9&#45;&gt;10 -->
<g id="edge182" class="edge"><title>9&#45;&gt;10</title>
<path fill="none" stroke="black" d="M3226.17,-207.98C3253.02,-198.382 3304.99,-185.092 3335,-211.927 3361.12,-235.275 3373.59,-471.725 3377.55,-565.708"/>
<polygon fill="black" stroke="black" points="3374.06,-566.071 3377.97,-575.919 3381.06,-565.783 3374.06,-566.071"/>
<text text-anchor="middle" x="3292" y="-217.327" font-family="Times Roman,serif" font-size="14.00">4:four</text>
</g>
<!-- 9&#45;&gt;10 -->
<g id="edge184" class="edge"><title>9&#45;&gt;10</title>
<path fill="none" stroke="black" d="M3219.31,-199.763C3226.45,-190.686 3236.84,-179.963 3249,-174.927 3284.31,-160.3 3306.63,-149.316 3335,-174.927 3363.75,-200.883 3374.77,-465.251 3377.94,-565.586"/>
<polygon fill="black" stroke="black" points="3374.45,-565.993 3378.26,-575.881 3381.45,-565.779 3374.45,-565.993"/>
<text text-anchor="middle" x="3292" y="-180.327" font-family="Times Roman,serif" font-size="14.00">5:five</text>
</g>
<!-- 9&#45;&gt;10 -->
<g id="edge186" class="edge"><title>9&#45;&gt;10</title>
<path fill="none" stroke="black" d="M3212.6,-197.21C3217.41,-178.746 3227.88,-150.752 3249,-137.927 3281.67,-118.084 3306.73,-112.201 3335,-137.927 3366.41,-166.514 3375.86,-459.214 3378.27,-565.569"/>
<polygon fill="black" stroke="black" points="3374.78,-565.928 3378.5,-575.849 3381.78,-565.775 3374.78,-565.928"/>
<text text-anchor="middle" x="3292" y="-143.327" font-family="Times Roman,serif" font-size="14.00">6:six</text>
</g>
<!-- 9&#45;&gt;10 -->
<g id="edge188" class="edge"><title>9&#45;&gt;10</title>
<path fill="none" stroke="black" d="M3212.52,-197.182C3218.77,-167.662 3232.7,-110.551 3249,-98.9268 3280.12,-76.738 3306.82,-73.0993 3335,-98.9268 3369.21,-130.288 3376.92,-452.853 3378.57,-565.421"/>
<polygon fill="black" stroke="black" points="3375.07,-565.692 3378.71,-575.642 3382.07,-565.595 3375.07,-565.692"/>
<text text-anchor="middle" x="3292" y="-104.327" font-family="Times Roman,serif" font-size="14.00">7:seven</text>
</g>
<!-- 9&#45;&gt;10 -->
<g id="edge190" class="edge"><title>9&#45;&gt;10</title>
<path fill="none" stroke="black" d="M3210.89,-196.863C3215.22,-159.512 3227.19,-75.8527 3249,-58.9268 3279.2,-35.4953 3306.91,-33.0099 3335,-58.9268 3353.62,-76.1088 3371.8,-443.882 3377.31,-565.365"/>
<polygon fill="black" stroke="black" points="3373.83,-565.843 3377.77,-575.675 3380.82,-565.528 3373.83,-565.843"/>
<text text-anchor="middle" x="3292" y="-64.3268" font-family="Times Roman,serif" font-size="14.00">8:eight</text>
</g>
<!-- 9&#45;&gt;10 -->
<g id="edge192" class="edge"><title>9&#45;&gt;10</title>
<path fill="none" stroke="black" d="M3209.88,-196.725C3212.45,-152.491 3221.56,-41.3314 3249,-18.9268 3278.61,5.24761 3306.98,7.06705 3335,-18.9268 3355.09,-37.5591 3372.5,-438.257 3377.53,-565.506"/>
<polygon fill="black" stroke="black" points="3374.04,-565.72 3377.93,-575.575 3381.03,-565.445 3374.04,-565.72"/>
<text text-anchor="middle" x="3292" y="-24.3268" font-family="Times Roman,serif" font-size="14.00">9:nine</text>
</g>
<!-- 21&#45;&gt;2 -->
<g id="edge322" class="edge"><title>21&#45;&gt;2</title>
<path fill="none" stroke="black" d="M534.751,-1392.09C592.146,-1406.98 738.147,-1444.87 799.346,-1460.75"/>
<polygon fill="black" stroke="black" points="798.523,-1464.15 809.082,-1463.28 800.282,-1457.38 798.523,-1464.15"/>
<text text-anchor="middle" x="669" y="-1448.33" font-family="Times Roman,serif" font-size="14.00">&lt;epsilon&gt;:hundred</text>
</g>
<!-- 19&#45;&gt;18 -->
<g id="edge282" class="edge"><title>19&#45;&gt;18</title>
<path fill="none" stroke="black" d="M1094.36,-1615.23C1098.51,-1663.15 1115.29,-1769.16 1183,-1814.93 1238.23,-1852.26 1284.25,-1860.4 1333,-1814.93 1352.8,-1796.46 1367.79,-1396.88 1371.89,-1276.16"/>
<polygon fill="black" stroke="black" points="1375.39,-1276.12 1372.23,-1266.01 1368.39,-1275.89 1375.39,-1276.12"/>
<text text-anchor="middle" x="1258" y="-1851.33" font-family="Times Roman,serif" font-size="14.00">0:&lt;epsilon&gt;</text>
</g>
<!-- 19&#45;&gt;18 -->
<g id="edge284" class="edge"><title>19&#45;&gt;18</title>
<path fill="none" stroke="black" d="M1096.59,-1614.7C1104.21,-1655.67 1126.19,-1738.56 1183,-1773.93 1211.3,-1791.54 1308.56,-1796.6 1333,-1773.93 1351.3,-1756.96 1367.14,-1391.41 1371.69,-1276.31"/>
<polygon fill="black" stroke="black" points="1375.2,-1276.1 1372.09,-1265.97 1368.21,-1275.83 1375.2,-1276.1"/>
<text text-anchor="middle" x="1258" y="-1794.33" font-family="Times Roman,serif" font-size="14.00">1:one</text>
</g>
<!-- 19&#45;&gt;18 -->
<g id="edge286" class="edge"><title>19&#45;&gt;18</title>
<path fill="none" stroke="black" d="M1099.82,-1614.07C1111.03,-1647.36 1136.84,-1707.53 1183,-1732.93 1212.21,-1748.99 1308.49,-1755.52 1333,-1732.93 1349.81,-1717.43 1366.45,-1385.11 1371.47,-1276.17"/>
<polygon fill="black" stroke="black" points="1374.98,-1276.2 1371.94,-1266.05 1367.98,-1275.88 1374.98,-1276.2"/>
<text text-anchor="middle" x="1258" y="-1752.33" font-family="Times Roman,serif" font-size="14.00">2:two</text>
</g>
<!-- 19&#45;&gt;18 -->
<g id="edge288" class="edge"><title>19&#45;&gt;18</title>
<path fill="none" stroke="black" d="M1104.57,-1612.37C1119.16,-1636.87 1146.78,-1675.69 1183,-1691.93 1213.42,-1705.56 1308.41,-1714.43 1333,-1691.93 1363.5,-1664.02 1370.89,-1376.9 1372.55,-1276.42"/>
<polygon fill="black" stroke="black" points="1376.05,-1276.26 1372.71,-1266.2 1369.06,-1276.15 1376.05,-1276.26"/>
<text text-anchor="middle" x="1258" y="-1710.33" font-family="Times Roman,serif" font-size="14.00">3:three</text>
</g>
<!-- 19&#45;&gt;18 -->
<g id="edge290" class="edge"><title>19&#45;&gt;18</title>
<path fill="none" stroke="black" d="M1110.96,-1607.64C1128.02,-1622.28 1155.14,-1642.49 1183,-1650.93 1214.9,-1660.59 1308.31,-1673.32 1333,-1650.93 1360.57,-1625.92 1369.77,-1369.85 1372.23,-1276.08"/>
<polygon fill="black" stroke="black" points="1375.73,-1276.08 1372.49,-1265.99 1368.74,-1275.9 1375.73,-1276.08"/>
<text text-anchor="middle" x="1258" y="-1668.33" font-family="Times Roman,serif" font-size="14.00">4:four</text>
</g>
<!-- 19&#45;&gt;18 -->
<g id="edge292" class="edge"><title>19&#45;&gt;18</title>
<path fill="none" stroke="black" d="M1116.74,-1596.97C1170.96,-1610.13 1301.66,-1638.05 1333,-1609.93 1357.62,-1587.83 1368.51,-1363.2 1371.83,-1276.14"/>
<polygon fill="black" stroke="black" points="1375.34,-1276.11 1372.21,-1265.99 1368.34,-1275.85 1375.34,-1276.11"/>
<text text-anchor="middle" x="1258" y="-1627.33" font-family="Times Roman,serif" font-size="14.00">5:five</text>
</g>
<!-- 19&#45;&gt;18 -->
<g id="edge294" class="edge"><title>19&#45;&gt;18</title>
<path fill="none" stroke="black" d="M1117.74,-1589.49C1177.49,-1585.92 1325.34,-1576.36 1333,-1568.93 1353.8,-1548.75 1366.73,-1355.61 1371.22,-1275.98"/>
<polygon fill="black" stroke="black" points="1374.72,-1276.15 1371.78,-1265.97 1367.73,-1275.76 1374.72,-1276.15"/>
<text text-anchor="middle" x="1258" y="-1590.33" font-family="Times Roman,serif" font-size="14.00">6:six</text>
</g>
<!-- 19&#45;&gt;18 -->
<g id="edge296" class="edge"><title>19&#45;&gt;18</title>
<path fill="none" stroke="black" d="M1114.01,-1578.18C1131.76,-1568.03 1158.17,-1554.35 1183,-1546.93 1215.19,-1537.31 1309.09,-1551.53 1333,-1527.93 1350.69,-1510.46 1364.98,-1348.42 1370.52,-1276.28"/>
<polygon fill="black" stroke="black" points="1374.04,-1276.15 1371.3,-1265.92 1367.06,-1275.62 1374.04,-1276.15"/>
<text text-anchor="middle" x="1258" y="-1552.33" font-family="Times Roman,serif" font-size="14.00">7:seven</text>
</g>
<!-- 19&#45;&gt;18 -->
<g id="edge298" class="edge"><title>19&#45;&gt;18</title>
<path fill="none" stroke="black" d="M1107.46,-1571.35C1123.5,-1551.26 1151.33,-1520.89 1183,-1505.93 1213.38,-1491.57 1308.82,-1510.26 1333,-1486.93 1362.55,-1458.42 1370.27,-1336.6 1372.29,-1276.18"/>
<polygon fill="black" stroke="black" points="1375.79,-1276.1 1372.59,-1266 1368.8,-1275.89 1375.79,-1276.1"/>
<text text-anchor="middle" x="1258" y="-1511.33" font-family="Times Roman,serif" font-size="14.00">8:eight</text>
</g>
<!-- 19&#45;&gt;18 -->
<g id="edge300" class="edge"><title>19&#45;&gt;18</title>
<path fill="none" stroke="black" d="M1102.34,-1568.55C1115.69,-1539.57 1143.09,-1489.83 1183,-1464.93 1240.34,-1429.15 1284.4,-1486.89 1333,-1439.93 1356.01,-1417.69 1366.54,-1326.51 1370.69,-1276.01"/>
<polygon fill="black" stroke="black" points="1374.19,-1276.13 1371.48,-1265.88 1367.22,-1275.58 1374.19,-1276.13"/>
<text text-anchor="middle" x="1258" y="-1470.33" font-family="Times Roman,serif" font-size="14.00">9:nine</text>
</g>
<!-- 20&#45;&gt;18 -->
<g id="edge302" class="edge"><title>20&#45;&gt;18</title>
<path fill="none" stroke="black" d="M1099.82,-1286.07C1111.03,-1319.36 1136.84,-1379.53 1183,-1404.93 1212.21,-1420.99 1306.77,-1425.5 1333,-1404.93 1353.02,-1389.23 1364.34,-1319.12 1369.51,-1276.12"/>
<polygon fill="black" stroke="black" points="1373,-1276.42 1370.67,-1266.09 1366.05,-1275.62 1373,-1276.42"/>
<text text-anchor="middle" x="1258" y="-1423.33" font-family="Times Roman,serif" font-size="14.00">0:ten</text>
</g>
<!-- 20&#45;&gt;18 -->
<g id="edge304" class="edge"><title>20&#45;&gt;18</title>
<path fill="none" stroke="black" d="M1104.57,-1284.37C1119.16,-1308.87 1146.78,-1347.69 1183,-1363.93 1213.42,-1377.56 1306.01,-1383.48 1333,-1363.93 1347.5,-1353.42 1359.55,-1308.08 1366.52,-1275.74"/>
<polygon fill="black" stroke="black" points="1369.98,-1276.26 1368.6,-1265.76 1363.13,-1274.84 1369.98,-1276.26"/>
<text text-anchor="middle" x="1258" y="-1381.33" font-family="Times Roman,serif" font-size="14.00">1:eleven</text>
</g>
<!-- 20&#45;&gt;18 -->
<g id="edge306" class="edge"><title>20&#45;&gt;18</title>
<path fill="none" stroke="black" d="M1110.96,-1279.64C1128.02,-1294.28 1155.14,-1314.49 1183,-1322.93 1214.9,-1332.59 1304.69,-1340.52 1333,-1322.93 1349.7,-1312.55 1359.64,-1292.9 1365.43,-1275.56"/>
<polygon fill="black" stroke="black" points="1368.87,-1276.29 1368.38,-1265.7 1362.16,-1274.28 1368.87,-1276.29"/>
<text text-anchor="middle" x="1258" y="-1338.33" font-family="Times Roman,serif" font-size="14.00">2:twelve</text>
</g>
<!-- 20&#45;&gt;18 -->
<g id="edge308" class="edge"><title>20&#45;&gt;18</title>
<path fill="none" stroke="black" d="M1116.25,-1271.54C1160.42,-1286.46 1258.67,-1312.72 1333,-1281.93 1339.99,-1279.03 1346.39,-1274.26 1351.93,-1269"/>
<polygon fill="black" stroke="black" points="1354.56,-1271.32 1358.92,-1261.66 1349.49,-1266.49 1354.56,-1271.32"/>
<text text-anchor="middle" x="1258" y="-1301.33" font-family="Times Roman,serif" font-size="14.00">3:thirteen</text>
</g>
<!-- 20&#45;&gt;18 -->
<g id="edge310" class="edge"><title>20&#45;&gt;18</title>
<path fill="none" stroke="black" d="M1117.85,-1261.06C1167.87,-1257.31 1280.82,-1248.84 1338.17,-1244.54"/>
<polygon fill="black" stroke="black" points="1338.5,-1248.02 1348.21,-1243.79 1337.97,-1241.04 1338.5,-1248.02"/>
<text text-anchor="middle" x="1258" y="-1261.33" font-family="Times Roman,serif" font-size="14.00">4:fourteen</text>
</g>
<!-- 20&#45;&gt;18 -->
<g id="edge312" class="edge"><title>20&#45;&gt;18</title>
<path fill="none" stroke="black" d="M1114.32,-1250.38C1132.03,-1240.73 1158.25,-1228.18 1183,-1222.93 1248.21,-1209.09 1267.97,-1208.27 1333,-1222.93 1336.05,-1223.61 1339.14,-1224.56 1342.19,-1225.67"/>
<polygon fill="black" stroke="black" points="1341.05,-1228.99 1351.63,-1229.64 1343.76,-1222.54 1341.05,-1228.99"/>
<text text-anchor="middle" x="1258" y="-1228.33" font-family="Times Roman,serif" font-size="14.00">5:fifteen</text>
</g>
<!-- 20&#45;&gt;18 -->
<g id="edge314" class="edge"><title>20&#45;&gt;18</title>
<path fill="none" stroke="black" d="M1108.68,-1244.37C1125.09,-1226.51 1152.66,-1200.68 1183,-1189.93 1245.83,-1167.65 1273.19,-1160.48 1333,-1189.93 1342.66,-1194.68 1350.63,-1203.01 1356.86,-1211.63"/>
<polygon fill="black" stroke="black" points="1354.08,-1213.78 1362.49,-1220.22 1359.93,-1209.94 1354.08,-1213.78"/>
<text text-anchor="middle" x="1258" y="-1195.33" font-family="Times Roman,serif" font-size="14.00">6:sixteen</text>
</g>
<!-- 20&#45;&gt;18 -->
<g id="edge316" class="edge"><title>20&#45;&gt;18</title>
<path fill="none" stroke="black" d="M1102.81,-1240.56C1116.33,-1212.9 1143.57,-1167.14 1183,-1147.93 1242.93,-1118.73 1277.39,-1111.16 1333,-1147.93 1353.09,-1161.21 1363.12,-1186.85 1368.11,-1207.99"/>
<polygon fill="black" stroke="black" points="1364.72,-1208.86 1370.18,-1217.94 1371.57,-1207.44 1364.72,-1208.86"/>
<text text-anchor="middle" x="1258" y="-1153.33" font-family="Times Roman,serif" font-size="14.00">7:seventeen</text>
</g>
<!-- 20&#45;&gt;18 -->
<g id="edge318" class="edge"><title>20&#45;&gt;18</title>
<path fill="none" stroke="black" d="M1098.09,-1239.42C1107.54,-1202.27 1131.7,-1131.11 1183,-1100.93 1211.73,-1084.02 1306.41,-1080.83 1333,-1100.93 1350.07,-1113.83 1361.98,-1170.64 1368.14,-1208.09"/>
<polygon fill="black" stroke="black" points="1364.7,-1208.76 1369.72,-1218.09 1371.61,-1207.67 1364.7,-1208.76"/>
<text text-anchor="middle" x="1258" y="-1106.33" font-family="Times Roman,serif" font-size="14.00">8:eighteen</text>
</g>
<!-- 20&#45;&gt;18 -->
<g id="edge320" class="edge"><title>20&#45;&gt;18</title>
<path fill="none" stroke="black" d="M1095.68,-1239.01C1102,-1195.45 1122.2,-1104.07 1183,-1064.93 1211.03,-1046.88 1306.96,-1044.12 1333,-1064.93 1354.92,-1082.44 1365.7,-1161.28 1370.23,-1207.62"/>
<polygon fill="black" stroke="black" points="1366.77,-1208.18 1371.18,-1217.81 1373.74,-1207.53 1366.77,-1208.18"/>
<text text-anchor="middle" x="1258" y="-1070.33" font-family="Times Roman,serif" font-size="14.00">9:nineteen</text>
</g>
<!-- 18&#45;&gt;4 -->
<g id="edge280" class="edge"><title>18&#45;&gt;4</title>
<path fill="none" stroke="black" d="M1397.4,-1238.22C1439.09,-1231.9 1523.84,-1219.03 1568.3,-1212.28"/>
<polygon fill="black" stroke="black" points="1569.07,-1215.71 1578.43,-1210.75 1568.02,-1208.79 1569.07,-1215.71"/>
<text text-anchor="middle" x="1488" y="-1240.33" font-family="Times Roman,serif" font-size="14.00">&lt;epsilon&gt;:million</text>
</g>
<!-- 17&#45;&gt;5 -->
<g id="edge278" class="edge"><title>17&#45;&gt;5</title>
<path fill="none" stroke="black" d="M1891.85,-1225.69C1932.05,-1250.43 2022.86,-1306.96 2097,-1357.93 2100.6,-1360.4 2104.37,-1363.08 2108.03,-1365.73"/>
<polygon fill="black" stroke="black" points="2106.12,-1368.67 2116.25,-1371.77 2110.26,-1363.03 2106.12,-1368.67"/>
<text text-anchor="middle" x="2029" y="-1363.33" font-family="Times Roman,serif" font-size="14.00">&lt;epsilon&gt;:hundred</text>
</g>
<!-- 15&#45;&gt;14 -->
<g id="edge238" class="edge"><title>15&#45;&gt;14</title>
<path fill="none" stroke="black" d="M2291.66,-1489.11C2293.62,-1540.97 2301.34,-1660.18 2331,-1684.93 2360.35,-1709.42 2389.05,-1711 2417,-1684.93 2436.8,-1666.46 2451.79,-1266.88 2455.89,-1146.16"/>
<polygon fill="black" stroke="black" points="2459.39,-1146.12 2456.23,-1136.01 2452.39,-1145.89 2459.39,-1146.12"/>
<text text-anchor="middle" x="2374" y="-1708.33" font-family="Times Roman,serif" font-size="14.00">0:&lt;epsilon&gt;</text>
</g>
<!-- 15&#45;&gt;14 -->
<g id="edge240" class="edge"><title>15&#45;&gt;14</title>
<path fill="none" stroke="black" d="M2292.75,-1488.97C2296.52,-1533.21 2307.08,-1624.76 2331,-1643.93 2360.83,-1667.83 2388.98,-1669.92 2417,-1643.93 2435.3,-1626.96 2451.14,-1261.41 2455.69,-1146.31"/>
<polygon fill="black" stroke="black" points="2459.2,-1146.1 2456.09,-1135.97 2452.21,-1145.83 2459.2,-1146.1"/>
<text text-anchor="middle" x="2374" y="-1667.33" font-family="Times Roman,serif" font-size="14.00">1:one</text>
</g>
<!-- 15&#45;&gt;14 -->
<g id="edge242" class="edge"><title>15&#45;&gt;14</title>
<path fill="none" stroke="black" d="M2294.45,-1488.85C2300.15,-1524.59 2312.75,-1589.22 2331,-1602.93 2361.56,-1625.89 2388.9,-1628.83 2417,-1602.93 2433.81,-1587.43 2450.45,-1255.11 2455.47,-1146.17"/>
<polygon fill="black" stroke="black" points="2458.98,-1146.2 2455.94,-1136.05 2451.98,-1145.88 2458.98,-1146.2"/>
<text text-anchor="middle" x="2374" y="-1626.33" font-family="Times Roman,serif" font-size="14.00">2:two</text>
</g>
<!-- 15&#45;&gt;14 -->
<g id="edge244" class="edge"><title>15&#45;&gt;14</title>
<path fill="none" stroke="black" d="M2293.51,-1489.21C2297.33,-1512.3 2306.93,-1545.82 2331,-1561.93 2362.76,-1583.19 2388.8,-1587.73 2417,-1561.93 2447.5,-1534.02 2454.89,-1246.9 2456.55,-1146.42"/>
<polygon fill="black" stroke="black" points="2460.05,-1146.26 2456.71,-1136.2 2453.06,-1146.15 2460.05,-1146.26"/>
<text text-anchor="middle" x="2374" y="-1584.33" font-family="Times Roman,serif" font-size="14.00">3:three</text>
</g>
<!-- 15&#45;&gt;14 -->
<g id="edge246" class="edge"><title>15&#45;&gt;14</title>
<path fill="none" stroke="black" d="M2300.49,-1487.11C2307.09,-1499.49 2317.19,-1513.82 2331,-1520.93 2364.99,-1538.42 2388.69,-1546.61 2417,-1520.93 2444.57,-1495.92 2453.77,-1239.85 2456.23,-1146.08"/>
<polygon fill="black" stroke="black" points="2459.73,-1146.08 2456.49,-1135.99 2452.74,-1145.9 2459.73,-1146.08"/>
<text text-anchor="middle" x="2374" y="-1542.33" font-family="Times Roman,serif" font-size="14.00">4:four</text>
</g>
<!-- 15&#45;&gt;14 -->
<g id="edge248" class="edge"><title>15&#45;&gt;14</title>
<path fill="none" stroke="black" d="M2312.72,-1476.44C2340.51,-1489.4 2388.47,-1505.52 2417,-1479.93 2441.62,-1457.83 2452.51,-1233.2 2455.83,-1146.14"/>
<polygon fill="black" stroke="black" points="2459.34,-1146.11 2456.21,-1135.99 2452.34,-1145.85 2459.34,-1146.11"/>
<text text-anchor="middle" x="2374" y="-1498.33" font-family="Times Roman,serif" font-size="14.00">5:five</text>
</g>
<!-- 15&#45;&gt;14 -->
<g id="edge250" class="edge"><title>15&#45;&gt;14</title>
<path fill="none" stroke="black" d="M2315.34,-1460.65C2350.98,-1454.29 2413.55,-1442.67 2417,-1438.93 2436.61,-1417.64 2450.22,-1225.59 2455.05,-1146.12"/>
<polygon fill="black" stroke="black" points="2458.55,-1146.31 2455.65,-1136.12 2451.56,-1145.89 2458.55,-1146.31"/>
<text text-anchor="middle" x="2374" y="-1462.33" font-family="Times Roman,serif" font-size="14.00">6:six</text>
</g>
<!-- 15&#45;&gt;14 -->
<g id="edge252" class="edge"><title>15&#45;&gt;14</title>
<path fill="none" stroke="black" d="M2303.81,-1443.92C2310.71,-1434.3 2320.07,-1423.58 2331,-1416.93 2364.44,-1396.58 2390.43,-1426.67 2417,-1397.93 2433.83,-1379.72 2448.54,-1218.84 2454.35,-1146.68"/>
<polygon fill="black" stroke="black" points="2457.87,-1146.55 2455.18,-1136.3 2450.89,-1145.99 2457.87,-1146.55"/>
<text text-anchor="middle" x="2374" y="-1422.33" font-family="Times Roman,serif" font-size="14.00">7:seven</text>
</g>
<!-- 15&#45;&gt;14 -->
<g id="edge254" class="edge"><title>15&#45;&gt;14</title>
<path fill="none" stroke="black" d="M2295.45,-1441.24C2300.53,-1420.88 2310.89,-1392.28 2331,-1375.93 2361.37,-1351.22 2390.1,-1385.36 2417,-1356.93 2445.15,-1327.17 2453.55,-1206.52 2456.01,-1146.37"/>
<polygon fill="black" stroke="black" points="2459.51,-1146.35 2456.39,-1136.22 2452.52,-1146.08 2459.51,-1146.35"/>
<text text-anchor="middle" x="2374" y="-1381.33" font-family="Times Roman,serif" font-size="14.00">8:eight</text>
</g>
<!-- 15&#45;&gt;14 -->
<g id="edge256" class="edge"><title>15&#45;&gt;14</title>
<path fill="none" stroke="black" d="M2295.39,-1441.21C2302.04,-1407.85 2315.54,-1349.5 2331,-1334.93 2359.63,-1307.94 2389.8,-1342.35 2417,-1313.93 2439.56,-1290.36 2450.28,-1197.72 2454.58,-1146.48"/>
<polygon fill="black" stroke="black" points="2458.09,-1146.46 2455.4,-1136.21 2451.12,-1145.9 2458.09,-1146.46"/>
<text text-anchor="middle" x="2374" y="-1340.33" font-family="Times Roman,serif" font-size="14.00">9:nine</text>
</g>
<!-- 16&#45;&gt;14 -->
<g id="edge258" class="edge"><title>16&#45;&gt;14</title>
<path fill="none" stroke="black" d="M2294.25,-1156.93C2299.77,-1193.57 2312.21,-1260.7 2331,-1274.93 2361.47,-1298 2386.92,-1298.51 2417,-1274.93 2437.02,-1259.23 2448.34,-1189.12 2453.51,-1146.12"/>
<polygon fill="black" stroke="black" points="2457,-1146.42 2454.67,-1136.09 2450.05,-1145.62 2457,-1146.42"/>
<text text-anchor="middle" x="2374" y="-1297.33" font-family="Times Roman,serif" font-size="14.00">0:ten</text>
</g>
<!-- 16&#45;&gt;14 -->
<g id="edge260" class="edge"><title>16&#45;&gt;14</title>
<path fill="none" stroke="black" d="M2293.06,-1157.28C2296.54,-1181.31 2305.89,-1216.86 2331,-1233.93 2362.61,-1255.41 2386.05,-1256.35 2417,-1233.93 2431.5,-1223.42 2443.55,-1178.08 2450.52,-1145.74"/>
<polygon fill="black" stroke="black" points="2453.98,-1146.26 2452.6,-1135.76 2447.13,-1144.84 2453.98,-1146.26"/>
<text text-anchor="middle" x="2374" y="-1255.33" font-family="Times Roman,serif" font-size="14.00">1:eleven</text>
</g>
<!-- 16&#45;&gt;14 -->
<g id="edge262" class="edge"><title>16&#45;&gt;14</title>
<path fill="none" stroke="black" d="M2299.66,-1155.73C2306.1,-1169.18 2316.32,-1185.07 2331,-1192.93 2364.7,-1210.96 2384.54,-1213.1 2417,-1192.93 2433.7,-1182.55 2443.64,-1162.9 2449.43,-1145.56"/>
<polygon fill="black" stroke="black" points="2452.87,-1146.29 2452.38,-1135.7 2446.16,-1144.28 2452.87,-1146.29"/>
<text text-anchor="middle" x="2374" y="-1212.33" font-family="Times Roman,serif" font-size="14.00">2:twelve</text>
</g>
<!-- 16&#45;&gt;14 -->
<g id="edge264" class="edge"><title>16&#45;&gt;14</title>
<path fill="none" stroke="black" d="M2312.37,-1145.21C2318.23,-1147.97 2324.7,-1150.51 2331,-1151.93 2368.29,-1160.33 2381.69,-1166.55 2417,-1151.93 2423.99,-1149.03 2430.39,-1144.26 2435.93,-1139"/>
<polygon fill="black" stroke="black" points="2438.56,-1141.32 2442.92,-1131.66 2433.49,-1136.49 2438.56,-1141.32"/>
<text text-anchor="middle" x="2374" y="-1165.33" font-family="Times Roman,serif" font-size="14.00">3:thirteen</text>
</g>
<!-- 16&#45;&gt;14 -->
<g id="edge266" class="edge"><title>16&#45;&gt;14</title>
<path fill="none" stroke="black" d="M2315.49,-1129.83C2343.77,-1126.25 2390.49,-1120.34 2422.45,-1116.3"/>
<polygon fill="black" stroke="black" points="2423.19,-1119.73 2432.68,-1115 2422.32,-1112.79 2423.19,-1119.73"/>
<text text-anchor="middle" x="2374" y="-1132.33" font-family="Times Roman,serif" font-size="14.00">4:fourteen</text>
</g>
<!-- 16&#45;&gt;14 -->
<g id="edge268" class="edge"><title>16&#45;&gt;14</title>
<path fill="none" stroke="black" d="M2306.02,-1113.36C2312.77,-1106.13 2321.39,-1098.76 2331,-1094.93 2366.5,-1080.75 2379.55,-1087.3 2417,-1094.93 2419.84,-1095.51 2422.73,-1096.29 2425.59,-1097.22"/>
<polygon fill="black" stroke="black" points="2424.49,-1100.54 2435.09,-1100.75 2426.94,-1093.98 2424.49,-1100.54"/>
<text text-anchor="middle" x="2374" y="-1100.33" font-family="Times Roman,serif" font-size="14.00">5:fifteen</text>
</g>
<!-- 16&#45;&gt;14 -->
<g id="edge270" class="edge"><title>16&#45;&gt;14</title>
<path fill="none" stroke="black" d="M2297.72,-1109.57C2303.67,-1093.62 2314.08,-1073.67 2331,-1063.93 2364.12,-1044.85 2382.39,-1047.71 2417,-1063.93 2425.66,-1067.98 2433.09,-1074.93 2439.12,-1082.31"/>
<polygon fill="black" stroke="black" points="2436.33,-1084.42 2445.11,-1090.35 2441.95,-1080.24 2436.33,-1084.42"/>
<text text-anchor="middle" x="2374" y="-1069.33" font-family="Times Roman,serif" font-size="14.00">6:sixteen</text>
</g>
<!-- 16&#45;&gt;14 -->
<g id="edge272" class="edge"><title>16&#45;&gt;14</title>
<path fill="none" stroke="black" d="M2296.63,-1109.51C2303.88,-1081.57 2317.19,-1037.45 2331,-1027.93 2362.47,-1006.24 2384.68,-1007.52 2417,-1027.93 2434.52,-1038.99 2444.52,-1060.05 2450.14,-1078.31"/>
<polygon fill="black" stroke="black" points="2446.81,-1079.38 2452.84,-1088.09 2453.56,-1077.52 2446.81,-1079.38"/>
<text text-anchor="middle" x="2374" y="-1033.33" font-family="Times Roman,serif" font-size="14.00">7:seventeen</text>
</g>
<!-- 16&#45;&gt;14 -->
<g id="edge274" class="edge"><title>16&#45;&gt;14</title>
<path fill="none" stroke="black" d="M2294.18,-1109.06C2299.64,-1072.23 2312.05,-1004.3 2331,-989.927 2361.45,-966.825 2386.05,-967.502 2417,-989.927 2431.5,-1000.43 2443.55,-1045.78 2450.52,-1078.11"/>
<polygon fill="black" stroke="black" points="2447.13,-1079.02 2452.6,-1088.09 2453.98,-1077.59 2447.13,-1079.02"/>
<text text-anchor="middle" x="2374" y="-995.327" font-family="Times Roman,serif" font-size="14.00">8:eighteen</text>
</g>
<!-- 16&#45;&gt;14 -->
<g id="edge276" class="edge"><title>16&#45;&gt;14</title>
<path fill="none" stroke="black" d="M2292.65,-1108.84C2296.29,-1064 2306.67,-970.49 2331,-950.927 2360.79,-926.975 2386.89,-927.382 2417,-950.927 2436.71,-966.342 2448.09,-1035.01 2453.37,-1077.54"/>
<polygon fill="black" stroke="black" points="2449.93,-1078.22 2454.58,-1087.74 2456.88,-1077.39 2449.93,-1078.22"/>
<text text-anchor="middle" x="2374" y="-956.327" font-family="Times Roman,serif" font-size="14.00">9:nineteen</text>
</g>
<!-- 14&#45;&gt;7 -->
<g id="edge236" class="edge"><title>14&#45;&gt;7</title>
<path fill="none" stroke="black" d="M2469.86,-1091.38C2507.52,-1031.23 2617.4,-855.739 2657.83,-791.15"/>
<polygon fill="black" stroke="black" points="2660.94,-792.786 2663.28,-782.453 2655.01,-789.071 2660.94,-792.786"/>
<text text-anchor="middle" x="2568" y="-1051.33" font-family="Times Roman,serif" font-size="14.00">&lt;epsilon&gt;:thousand</text>
</g>
<!-- 13&#45;&gt;8 -->
<g id="edge234" class="edge"><title>13&#45;&gt;8</title>
<path fill="none" stroke="black" d="M2842.45,-778.592C2884.78,-801.613 2978.85,-852.776 3023.95,-877.302"/>
<polygon fill="black" stroke="black" points="3022.33,-880.408 3032.79,-882.111 3025.68,-874.259 3022.33,-880.408"/>
<text text-anchor="middle" x="2947" y="-876.327" font-family="Times Roman,serif" font-size="14.00">&lt;epsilon&gt;:hundred</text>
</g>
<!-- 11&#45;&gt;10 -->
<g id="edge202" class="edge"><title>11&#45;&gt;10</title>
<path fill="none" stroke="black" d="M3210.04,-997.213C3212.71,-1046.26 3221.62,-1154.39 3249,-1176.93 3278.51,-1201.22 3306.96,-1202.9 3335,-1176.93 3354.65,-1158.73 3372.29,-767.875 3377.47,-642.362"/>
<polygon fill="black" stroke="black" points="3380.98,-642.214 3377.89,-632.08 3373.99,-641.928 3380.98,-642.214"/>
<text text-anchor="middle" x="3292" y="-1200.33" font-family="Times Roman,serif" font-size="14.00">4:four</text>
</g>
<!-- 11&#45;&gt;10 -->
<g id="edge204" class="edge"><title>11&#45;&gt;10</title>
<path fill="none" stroke="black" d="M3211.33,-997.086C3215.86,-1038.19 3227.33,-1118.93 3249,-1135.93 3279.08,-1159.51 3306.88,-1161.82 3335,-1135.93 3371.16,-1102.64 3377.6,-759.236 3378.75,-642.512"/>
<polygon fill="black" stroke="black" points="3382.25,-642.291 3378.84,-632.26 3375.25,-642.228 3382.25,-642.291"/>
<text text-anchor="middle" x="3292" y="-1159.33" font-family="Times Roman,serif" font-size="14.00">5:five</text>
</g>
<!-- 11&#45;&gt;10 -->
<g id="edge206" class="edge"><title>11&#45;&gt;10</title>
<path fill="none" stroke="black" d="M3213.4,-996.761C3219.87,-1028.85 3232.94,-1083.29 3249,-1094.93 3279.95,-1117.35 3306.79,-1120.72 3335,-1094.93 3368.23,-1064.54 3376.56,-752.264 3378.47,-642.126"/>
<polygon fill="black" stroke="black" points="3381.97,-642.171 3378.64,-632.114 3374.97,-642.055 3381.97,-642.171"/>
<text text-anchor="middle" x="3292" y="-1118.33" font-family="Times Roman,serif" font-size="14.00">6:six</text>
</g>
<!-- 11&#45;&gt;10 -->
<g id="edge208" class="edge"><title>11&#45;&gt;10</title>
<path fill="none" stroke="black" d="M3213.62,-996.701C3218.72,-1015.83 3229.02,-1041.51 3249,-1053.93 3281.46,-1074.1 3306.69,-1079.61 3335,-1053.93 3365.29,-1026.46 3375.42,-745.644 3378.14,-642.047"/>
<polygon fill="black" stroke="black" points="3381.64,-642.104 3378.4,-632.018 3374.64,-641.926 3381.64,-642.104"/>
<text text-anchor="middle" x="3292" y="-1076.33" font-family="Times Roman,serif" font-size="14.00">7:seven</text>
</g>
<!-- 11&#45;&gt;10 -->
<g id="edge210" class="edge"><title>11&#45;&gt;10</title>
<path fill="none" stroke="black" d="M3223.08,-992.662C3229.91,-1000.54 3238.84,-1008.72 3249,-1012.93 3284.31,-1027.55 3306.56,-1038.47 3335,-1012.93 3362.3,-988.404 3374.13,-739.593 3377.73,-642.469"/>
<polygon fill="black" stroke="black" points="3381.24,-642.326 3378.1,-632.206 3374.24,-642.073 3381.24,-642.326"/>
<text text-anchor="middle" x="3292" y="-1033.33" font-family="Times Roman,serif" font-size="14.00">8:eight</text>
</g>
<!-- 11&#45;&gt;10 -->
<g id="edge212" class="edge"><title>11&#45;&gt;10</title>
<path fill="none" stroke="black" d="M3232.23,-980.919C3260.27,-988.936 3307.12,-996.869 3335,-971.927 3359.33,-950.158 3372.74,-731.591 3377.25,-641.963"/>
<polygon fill="black" stroke="black" points="3380.75,-642.104 3377.74,-631.944 3373.76,-641.759 3380.75,-642.104"/>
<text text-anchor="middle" x="3292" y="-993.327" font-family="Times Roman,serif" font-size="14.00">9:nine</text>
</g>
<!-- 11&#45;&gt;10 -->
<g id="edge194" class="edge"><title>11&#45;&gt;10</title>
<path fill="none" stroke="black" d="M3230.7,-961.74C3236.55,-958.968 3242.94,-956.156 3249,-953.927 3286.13,-940.271 3308.86,-960.63 3335,-930.927 3353.81,-909.551 3369.94,-724.135 3376.21,-642.377"/>
<polygon fill="black" stroke="black" points="3379.73,-642.252 3376.99,-632.016 3372.75,-641.724 3379.73,-642.252"/>
<text text-anchor="middle" x="3292" y="-959.327" font-family="Times Roman,serif" font-size="14.00">0:&lt;epsilon&gt;</text>
</g>
<!-- 11&#45;&gt;10 -->
<g id="edge196" class="edge"><title>11&#45;&gt;10</title>
<path fill="none" stroke="black" d="M3217.68,-950.387C3224.22,-936.37 3234.55,-919.13 3249,-908.927 3280.98,-886.348 3308.23,-918.488 3335,-889.927 3367.92,-854.8 3376.21,-711.963 3378.3,-642.385"/>
<polygon fill="black" stroke="black" points="3381.8,-642.365 3378.57,-632.273 3374.8,-642.174 3381.8,-642.365"/>
<text text-anchor="middle" x="3292" y="-914.327" font-family="Times Roman,serif" font-size="14.00">1:one</text>
</g>
<!-- 11&#45;&gt;10 -->
<g id="edge198" class="edge"><title>11&#45;&gt;10</title>
<path fill="none" stroke="black" d="M3211.62,-948.758C3215.53,-924.688 3225.23,-888.449 3249,-867.927 3278.63,-842.348 3307.88,-877.15 3335,-848.927 3362.88,-819.914 3373.48,-703.463 3377.19,-642.14"/>
<polygon fill="black" stroke="black" points="3380.69,-642.262 3377.77,-632.078 3373.7,-641.862 3380.69,-642.262"/>
<text text-anchor="middle" x="3292" y="-873.327" font-family="Times Roman,serif" font-size="14.00">2:two</text>
</g>
<!-- 11&#45;&gt;10 -->
<g id="edge200" class="edge"><title>11&#45;&gt;10</title>
<path fill="none" stroke="black" d="M3212.53,-949.055C3218.46,-912.149 3231.53,-843.734 3249,-826.927 3277.28,-799.724 3307.46,-834.883 3335,-806.927 3357.55,-784.034 3370.03,-694.629 3375.53,-642.416"/>
<polygon fill="black" stroke="black" points="3379.04,-642.491 3376.57,-632.188 3372.07,-641.784 3379.04,-642.491"/>
<text text-anchor="middle" x="3292" y="-832.327" font-family="Times Roman,serif" font-size="14.00">3:three</text>
</g>
<!-- 12&#45;&gt;10 -->
<g id="edge214" class="edge"><title>12&#45;&gt;10</title>
<path fill="none" stroke="black" d="M3212.25,-648.93C3217.77,-685.568 3230.21,-752.702 3249,-766.927 3279.47,-790.001 3304.65,-790.167 3335,-766.927 3354.77,-751.789 3367.67,-684.963 3374.12,-641.715"/>
<polygon fill="black" stroke="black" points="3377.59,-642.204 3375.55,-631.807 3370.66,-641.207 3377.59,-642.204"/>
<text text-anchor="middle" x="3292" y="-790.327" font-family="Times Roman,serif" font-size="14.00">0:ten</text>
</g>
<!-- 12&#45;&gt;10 -->
<g id="edge216" class="edge"><title>12&#45;&gt;10</title>
<path fill="none" stroke="black" d="M3211.06,-649.28C3214.54,-673.313 3223.89,-708.861 3249,-725.927 3280.61,-747.409 3303.72,-747.896 3335,-725.927 3349.26,-715.913 3362.36,-673.425 3370.49,-641.383"/>
<polygon fill="black" stroke="black" points="3373.95,-641.948 3372.95,-631.401 3367.16,-640.273 3373.95,-641.948"/>
<text text-anchor="middle" x="3292" y="-748.327" font-family="Times Roman,serif" font-size="14.00">1:eleven</text>
</g>
<!-- 12&#45;&gt;10 -->
<g id="edge218" class="edge"><title>12&#45;&gt;10</title>
<path fill="none" stroke="black" d="M3217.66,-647.729C3224.1,-661.182 3234.32,-677.07 3249,-684.927 3282.7,-702.962 3302.15,-704.466 3335,-684.927 3351.21,-675.284 3361.82,-657.35 3368.55,-640.804"/>
<polygon fill="black" stroke="black" points="3371.88,-641.888 3372.08,-631.295 3365.32,-639.453 3371.88,-641.888"/>
<text text-anchor="middle" x="3292" y="-705.327" font-family="Times Roman,serif" font-size="14.00">2:twelve</text>
</g>
<!-- 12&#45;&gt;10 -->
<g id="edge220" class="edge"><title>12&#45;&gt;10</title>
<path fill="none" stroke="black" d="M3230.37,-637.209C3236.23,-639.973 3242.7,-642.507 3249,-643.927 3286.29,-652.332 3299.35,-657.71 3335,-643.927 3341.6,-641.376 3347.82,-637.324 3353.39,-632.758"/>
<polygon fill="black" stroke="black" points="3355.99,-635.122 3361.05,-625.815 3351.29,-629.935 3355.99,-635.122"/>
<text text-anchor="middle" x="3292" y="-658.327" font-family="Times Roman,serif" font-size="14.00">3:thirteen</text>
</g>
<!-- 12&#45;&gt;10 -->
<g id="edge222" class="edge"><title>12&#45;&gt;10</title>
<path fill="none" stroke="black" d="M3233.36,-621.918C3261.36,-618.459 3307.68,-612.737 3340.56,-608.675"/>
<polygon fill="black" stroke="black" points="3341.23,-612.12 3350.72,-607.42 3340.37,-605.172 3341.23,-612.12"/>
<text text-anchor="middle" x="3292" y="-625.327" font-family="Times Roman,serif" font-size="14.00">4:fourteen</text>
</g>
<!-- 12&#45;&gt;10 -->
<g id="edge224" class="edge"><title>12&#45;&gt;10</title>
<path fill="none" stroke="black" d="M3224.11,-605.861C3230.88,-598.819 3239.49,-591.652 3249,-587.927 3284.59,-573.99 3297.36,-581.295 3335,-587.927 3337.52,-588.371 3340.09,-588.948 3342.65,-589.619"/>
<polygon fill="black" stroke="black" points="3341.83,-593.027 3352.42,-592.585 3343.87,-586.329 3341.83,-593.027"/>
<text text-anchor="middle" x="3292" y="-593.327" font-family="Times Roman,serif" font-size="14.00">5:fifteen</text>
</g>
<!-- 12&#45;&gt;10 -->
<g id="edge226" class="edge"><title>12&#45;&gt;10</title>
<path fill="none" stroke="black" d="M3216.26,-601.898C3222.38,-586.739 3232.77,-568.067 3249,-558.927 3282.3,-540.169 3299.77,-544.102 3335,-558.927 3342.65,-562.145 3349.63,-567.414 3355.67,-573.233"/>
<polygon fill="black" stroke="black" points="3353.38,-575.912 3362.79,-580.786 3358.48,-571.109 3353.38,-575.912"/>
<text text-anchor="middle" x="3292" y="-564.327" font-family="Times Roman,serif" font-size="14.00">6:sixteen</text>
</g>
<!-- 12&#45;&gt;10 -->
<g id="edge228" class="edge"><title>12&#45;&gt;10</title>
<path fill="none" stroke="black" d="M3211.14,-600.807C3214.68,-577.005 3224.07,-541.804 3249,-524.927 3280.65,-503.498 3302.05,-505.561 3335,-524.927 3350.69,-534.149 3361.2,-551.221 3367.99,-567.141"/>
<polygon fill="black" stroke="black" points="3364.87,-568.773 3371.76,-576.825 3371.39,-566.236 3364.87,-568.773"/>
<text text-anchor="middle" x="3292" y="-530.327" font-family="Times Roman,serif" font-size="14.00">7:seventeen</text>
</g>
<!-- 12&#45;&gt;10 -->
<g id="edge230" class="edge"><title>12&#45;&gt;10</title>
<path fill="none" stroke="black" d="M3212.52,-600.886C3218.28,-565.34 3230.91,-501.49 3249,-487.927 3279.58,-464.998 3303.54,-466.215 3335,-487.927 3348.46,-497.215 3361.43,-536.292 3369.76,-566.554"/>
<polygon fill="black" stroke="black" points="3366.43,-567.667 3372.4,-576.423 3373.2,-565.858 3366.43,-567.667"/>
<text text-anchor="middle" x="3292" y="-493.327" font-family="Times Roman,serif" font-size="14.00">8:eighteen</text>
</g>
<!-- 12&#45;&gt;10 -->
<g id="edge232" class="edge"><title>12&#45;&gt;10</title>
<path fill="none" stroke="black" d="M3210.89,-600.74C3214.86,-557.226 3225.67,-468.529 3249,-449.927 3278.89,-426.1 3304.49,-426.91 3335,-449.927 3353.52,-463.897 3366.59,-525.08 3373.45,-565.996"/>
<polygon fill="black" stroke="black" points="3370,-566.609 3375.06,-575.92 3376.91,-565.489 3370,-566.609"/>
<text text-anchor="middle" x="3292" y="-455.327" font-family="Times Roman,serif" font-size="14.00">9:nineteen</text>
</g>
</g>
</svg>
